<?xml version="1.0" standalone="no"?>
<!DOCTYPE svg PUBLIC "-//W3C//DTD SVG 20010904//EN"
 "http://www.w3.org/TR/2001/REC-SVG-20010904/DTD/svg10.dtd">
<svg version="1.0" xmlns="http://www.w3.org/2000/svg"
 width="640.000000pt" height="640.000000pt" viewBox="0 0 640.000000 640.000000"
 preserveAspectRatio="xMidYMid meet">
<metadata>
Created by potrace 1.14, written by Peter Selinger 2001-2017
</metadata>
<g transform="translate(0.000000,640.000000) scale(0.100000,-0.100000)"
fill="#000000" stroke="none">
<path d="M0 3200 l0 -3200 3200 0 3200 0 0 3200 0 3200 -3200 0 -3200 0 0
-3200z m3660 1937 c-1 -39 -43 -48 -64 -14 -9 15 -7 21 8 32 21 16 56 4 56
-18z m-862 1 c17 -17 15 -55 -4 -62 -29 -11 -44 -6 -56 19 -19 41 28 75 60 43z
m-440 -166 c4 -28 -24 -40 -45 -19 -21 21 -9 49 19 45 15 -2 24 -11 26 -26z
m1226 -52 c466 -101 843 -357 1098 -744 312 -474 362 -1074 133 -1591 -27 -62
-43 -75 -62 -50 -10 14 -13 63 -13 196 l0 177 30 57 c36 69 40 142 11 213 -13
31 -21 78 -23 137 -5 107 -33 178 -99 250 -39 43 -44 53 -50 116 -13 117 -72
220 -150 259 -20 11 -40 28 -43 38 -8 26 -58 52 -99 52 -20 0 -57 11 -85 25
-72 36 -156 55 -245 55 l-79 0 26 31 c31 36 32 50 9 77 -15 17 -51 24 -228 47
-117 15 -213 32 -217 39 -4 6 -47 79 -95 161 -82 139 -91 150 -118 150 -28 0
-32 -5 -110 -187 -44 -103 -83 -189 -86 -192 -3 -3 -96 -26 -207 -50 -111 -25
-208 -48 -215 -53 -6 -4 -59 -7 -117 -8 -93 0 -112 -3 -163 -27 -32 -15 -71
-36 -87 -48 -22 -15 -44 -20 -97 -20 -100 0 -157 -23 -224 -89 -70 -70 -99
-141 -106 -261 l-6 -85 -49 -52 c-76 -82 -101 -146 -108 -278 -3 -60 -11 -120
-18 -132 -22 -40 -15 -135 15 -189 22 -41 29 -72 39 -184 21 -223 16 -298 -20
-284 -19 7 -77 128 -119 250 -209 601 -56 1263 398 1720 262 264 585 428 964
489 133 22 486 13 615 -15z m1279 -90 c25 -64 25 -65 86 -88 34 -13 61 -28 61
-32 0 -5 -27 -19 -60 -31 l-60 -22 -27 -73 c-15 -41 -30 -74 -33 -74 -3 0 -17
32 -31 72 l-25 71 -67 26 c-37 14 -67 28 -67 31 0 3 30 17 67 30 l66 25 25 73
c13 41 28 70 33 65 4 -4 19 -37 32 -73z m-468 30 c0 -18 -6 -26 -23 -28 -13
-2 -25 3 -28 12 -10 26 4 48 28 44 17 -2 23 -10 23 -28z m-2410 -93 c13 -10
16 -21 11 -40 -5 -22 -12 -27 -36 -27 -24 0 -31 5 -36 27 -5 19 -2 30 11 40
11 7 22 13 25 13 3 0 14 -6 25 -13z m-514 -332 c23 -65 23 -65 81 -86 32 -12
58 -25 58 -28 0 -4 -22 -15 -49 -25 -60 -21 -64 -25 -91 -100 -12 -32 -25 -54
-29 -49 -4 4 -16 31 -26 58 -24 66 -28 71 -86 90 -28 10 -48 22 -46 28 2 6 24
18 50 26 60 21 58 18 96 124 6 15 12 27 15 27 2 0 14 -29 27 -65z m1909 -80
c40 -69 77 -128 81 -131 5 -3 88 -14 186 -25 170 -20 211 -31 195 -54 -4 -6
-45 -43 -92 -81 -122 -102 -115 -86 -93 -206 11 -57 19 -104 17 -106 -1 -2
-72 11 -158 28 l-156 31 -72 -21 c-40 -11 -108 -31 -151 -44 l-78 -25 2 89 c2
50 1 92 -2 94 -10 9 -238 133 -267 145 -61 26 -46 32 178 81 80 17 153 34 162
36 10 3 40 60 79 152 34 81 64 150 66 155 13 23 38 -6 103 -118z m1650 -30
c26 -32 -13 -81 -47 -59 -35 22 -23 74 17 74 10 0 23 -7 30 -15z m-2380 -287
c49 -15 131 -61 127 -72 -6 -18 -188 -116 -216 -116 -15 0 -50 -7 -77 -15 -27
-8 -50 -15 -51 -15 -2 0 -3 8 -3 18 0 24 -36 83 -68 109 -31 26 -23 41 43 73
78 38 157 44 245 18z m1445 -12 c28 -7 70 -23 95 -36 l44 -22 -34 -18 c-63
-33 -160 -152 -160 -197 0 -20 -8 -16 -41 22 -34 39 -133 92 -188 100 -73 12
-79 15 -85 41 -22 85 208 153 369 110z m-1807 -101 c49 -25 70 -43 111 -88
l24 -27 -25 -20 c-55 -43 -81 -140 -58 -219 5 -19 8 -36 7 -38 -2 -1 -37 4
-78 13 -89 19 -163 14 -224 -16 -25 -12 -49 -19 -54 -16 -17 11 -34 118 -29
186 8 102 63 193 143 234 46 24 127 20 183 -9z m2837 -20 c0 -22 -31 -33 -47
-17 -17 17 -1 44 24 40 15 -2 23 -10 23 -23z m-2201 -17 l56 -32 -3 -103 c-2
-88 -4 -103 -19 -103 -26 0 -96 34 -180 87 -107 68 -114 73 -103 78 6 3 46 27
90 54 44 27 85 50 92 50 6 1 36 -13 67 -31z m1462 3 c115 -52 169 -235 119
-407 -43 -150 -134 -270 -277 -364 -117 -77 -258 -131 -426 -164 -238 -47
-422 -120 -612 -244 -85 -55 -214 -157 -259 -206 -32 -34 -48 -33 -88 6 -36
34 -40 60 -23 133 6 27 6 41 -1 44 -6 2 -1 10 10 18 31 21 26 30 -21 36 -160
21 -559 97 -596 114 -18 8 -40 12 -48 9 -8 -3 -13 -2 -10 3 3 4 -14 16 -37 27
-23 10 -54 26 -69 37 -16 10 -28 14 -28 8 0 -6 6 -11 13 -12 9 0 9 -2 -1 -6
-6 -2 -9 -9 -6 -15 4 -5 -4 -4 -17 2 -43 23 -49 31 -39 50 7 13 6 21 -2 26 -7
4 -8 3 -4 -5 6 -9 0 -10 -21 -5 -27 6 -97 70 -127 117 -19 29 -40 188 -32 239
7 43 44 119 76 157 24 28 22 29 43 -25 12 -31 14 -60 10 -116 -5 -67 -3 -82
21 -134 36 -78 108 -145 210 -194 120 -57 206 -75 773 -161 l72 -11 -48 -62
c-48 -62 -89 -141 -78 -152 3 -3 17 11 30 33 55 86 197 193 310 233 75 26 111
25 163 -5 l44 -26 -6 46 c-6 38 -3 51 20 85 56 85 195 165 346 199 123 28 169
51 225 113 77 85 107 242 69 354 -19 56 -13 74 47 139 90 97 185 127 275 86z
m-536 -93 c51 -22 104 -69 128 -113 41 -77 7 -225 -71 -312 -42 -46 -80 -63
-201 -92 -123 -28 -236 -87 -323 -166 -62 -57 -81 -68 -140 -84 -37 -10 -85
-25 -107 -34 -44 -19 -80 -21 -157 -7 -30 5 -142 23 -249 40 -392 62 -523 97
-633 169 -47 30 -87 96 -87 143 0 45 35 98 80 121 58 30 178 19 325 -31 181
-61 258 -75 420 -75 162 0 251 19 375 80 89 43 181 130 230 216 17 31 35 57
39 57 4 0 47 -9 97 -20 168 -37 197 -24 177 79 -6 28 -8 53 -5 56 7 7 50 -4
102 -27z m-1209 -10 c19 -6 72 -34 119 -62 107 -63 185 -95 230 -96 38 0 76
10 254 64 65 21 125 35 133 32 21 -9 -20 -77 -83 -136 -103 -97 -229 -140
-439 -147 -116 -4 -157 -1 -240 16 -153 31 -177 42 -202 87 -35 63 -38 111
-11 164 40 79 142 112 239 78z m-1303 -145 c-3 -32 -44 -46 -54 -19 -10 26 4
46 31 46 23 0 26 -4 23 -27z m3842 -119 c11 -12 10 -18 -3 -31 -8 -9 -23 -13
-31 -10 -19 8 -21 43 -3 50 20 9 24 8 37 -9z m-520 -87 c19 -44 22 -68 21
-160 -1 -96 -4 -114 -26 -150 -67 -114 -265 -272 -440 -352 -103 -48 -183 -73
-347 -110 -196 -45 -298 -90 -556 -243 -327 -195 -308 -185 -331 -172 -12 6
-21 15 -21 20 0 5 -7 7 -16 3 -12 -5 -10 -9 11 -23 21 -14 23 -18 11 -23 -10
-4 -16 -1 -16 7 0 14 -45 30 -59 22 -5 -3 -9 -135 -10 -293 -1 -158 -4 -289
-7 -292 -12 -12 -56 23 -74 59 -23 44 -30 46 -86 26 -68 -24 -138 -28 -259
-16 -199 20 -325 62 -390 130 -27 29 -30 37 -30 100 0 63 -2 70 -25 83 -83 50
-160 145 -160 200 l0 24 67 -19 c174 -49 379 -61 468 -27 31 12 69 19 83 16
15 -3 61 -12 103 -21 123 -25 169 -3 169 81 0 44 6 55 38 72 27 14 53 8 77
-19 27 -30 44 -25 110 31 327 276 515 375 861 453 82 19 187 48 231 65 91 35
216 108 288 167 113 91 218 257 246 387 11 53 13 56 30 41 9 -8 27 -39 39 -67z
m-3646 -14 c20 -61 25 -65 94 -89 28 -10 52 -21 52 -24 0 -3 -28 -16 -61 -30
-61 -25 -62 -26 -86 -93 -14 -37 -29 -65 -33 -62 -5 3 -18 34 -30 69 -21 64
-21 64 -80 86 -33 12 -60 26 -60 30 0 5 24 16 53 26 64 20 73 28 82 61 13 52
35 97 44 87 5 -5 16 -32 25 -61z m4385 -206 c21 -63 22 -64 76 -81 30 -9 57
-21 60 -25 2 -5 -22 -19 -55 -31 -58 -22 -59 -23 -82 -86 -13 -35 -27 -63 -32
-61 -5 2 -18 29 -30 62 -22 61 -24 63 -96 93 l-45 20 40 16 c22 9 49 21 61 25
13 6 29 31 43 70 12 34 26 61 31 61 4 0 18 -28 29 -63z m-3534 -323 c33 -34
90 -81 125 -104 59 -39 62 -42 31 -36 -50 9 -181 93 -195 125 -6 14 -24 44
-39 67 -15 23 -30 59 -33 80 l-5 39 27 -55 c15 -30 55 -83 89 -116z m2860 139
c-12 -53 -87 -153 -151 -204 -56 -44 -148 -89 -159 -77 -3 2 21 23 53 45 86
61 187 158 223 214 37 56 44 61 34 22z m-3405 2 c10 -12 10 -21 2 -40 -12 -25
-27 -30 -56 -19 -16 6 -22 54 -9 67 12 12 50 7 63 -8z m630 -75 c0 -5 -2 -10
-4 -10 -3 0 -8 5 -11 10 -3 6 -1 10 4 10 6 0 11 -4 11 -10z m124 -55 c16 -12
17 -18 8 -27 -9 -9 -12 -9 -12 1 0 8 -8 20 -17 27 -10 7 -13 13 -8 13 6 0 19
-6 29 -14z m41 -45 c3 -6 -1 -7 -9 -4 -18 7 -21 14 -7 14 6 0 13 -4 16 -10z
m54 -20 c-6 -5 -18 -6 -26 -3 -19 8 -16 11 13 11 17 0 22 -3 13 -8z m94 -17
c-7 -2 -19 -2 -25 0 -7 3 -2 5 12 5 14 0 19 -2 13 -5z m184 -59 c-3 -3 -12 -4
-19 -1 -8 3 -5 6 6 6 11 1 17 -2 13 -5z m2733 -14 c22 -40 -26 -80 -58 -48
-13 13 -16 50 -5 61 14 14 53 6 63 -13z m-3816 -25 c10 -22 24 -37 40 -41 33
-8 33 -20 0 -28 -18 -5 -31 -19 -42 -47 l-15 -39 -17 39 c-12 26 -26 40 -44
45 -34 8 -33 19 4 33 20 7 34 22 41 42 6 17 13 31 15 31 2 0 10 -16 18 -35z
m3248 18 c6 -33 -13 -419 -22 -440 -6 -14 -18 -23 -31 -23 l-22 0 7 198 c4
108 10 212 13 230 7 43 48 70 55 35z m-275 -66 c-8 -28 -55 -56 -166 -97 -73
-27 -88 -29 -118 -19 -38 12 -63 7 -63 -14 0 -25 -33 -42 -168 -91 -104 -38
-142 -47 -170 -42 -34 5 -41 2 -74 -33 -49 -53 -186 -105 -278 -105 -63 -1
-65 -2 -68 -29 -4 -35 -22 -44 -112 -52 -86 -8 -85 -5 6 57 42 28 73 39 165
57 101 19 134 31 289 107 163 80 236 108 515 193 55 17 132 46 170 64 39 19
72 33 74 31 2 -2 1 -14 -2 -27z m-2116 4 c49 -17 214 -55 429 -99 80 -16 85
-19 88 -44 4 -35 -8 -36 -148 -9 -82 16 -107 26 -141 53 -37 30 -47 33 -108
33 -77 0 -183 38 -189 68 -4 21 2 21 69 -2z m2027 -380 c3 -197 -4 -231 -48
-231 -28 0 -32 26 -28 217 3 181 10 207 52 201 20 -3 21 -9 24 -187z m790 71
c4 -28 -24 -40 -45 -19 -14 13 -14 19 -3 32 18 22 44 15 48 -13z m-1184 -8 c9
-22 7 -377 -2 -390 -12 -18 -40 -24 -51 -11 -5 7 -11 90 -12 195 -2 163 0 184
16 202 22 24 41 26 49 4z m-2319 -104 c0 -18 -6 -26 -23 -28 -24 -4 -38 18
-28 44 3 9 15 14 28 12 17 -2 23 -10 23 -28z m1948 -167 c14 -291 9 -343 -38
-343 -28 0 -33 39 -35 235 0 168 2 204 15 223 9 12 24 22 34 22 16 0 19 -14
24 -137z m1378 -31 c14 -43 20 -49 67 -67 29 -11 52 -23 52 -26 0 -4 -22 -15
-48 -26 -42 -18 -50 -26 -66 -69 -10 -27 -22 -53 -26 -57 -4 -5 -17 18 -29 50
-21 55 -25 60 -71 76 -28 10 -50 22 -50 26 0 5 20 14 45 21 55 16 58 19 89
114 8 25 18 14 37 -42z m-1743 -119 l2 -162 -25 -17 c-20 -13 -28 -14 -40 -4
-12 10 -15 41 -15 155 0 130 2 145 21 169 12 15 29 26 38 24 14 -3 16 -25 19
-165z m-1453 29 c19 -54 22 -56 78 -76 31 -12 57 -24 57 -27 0 -3 -21 -14 -47
-24 -65 -24 -67 -27 -92 -95 -12 -33 -26 -58 -30 -56 -4 3 -16 31 -27 62 -18
55 -21 59 -76 82 -32 14 -58 28 -58 32 0 3 26 15 57 26 48 18 58 26 69 55 38
107 38 107 69 21z m2470 -45 c15 -11 17 -23 13 -66 -9 -96 -91 -163 -237 -195
-42 -10 -98 -22 -125 -28 -39 -8 -63 -24 -119 -75 -126 -116 -184 -132 -414
-112 -142 12 -163 11 -315 -10 -181 -24 -222 -25 -296 -11 -109 20 -193 82
-247 182 -15 28 -24 49 -19 47 5 -2 48 -24 95 -47 77 -39 93 -44 155 -44 38 0
130 12 204 26 343 65 379 69 466 55 102 -15 197 -8 249 19 22 11 66 40 97 65
31 24 88 57 125 72 37 15 115 49 173 76 137 62 163 68 195 46z m340 -207 c0
-16 -6 -26 -18 -28 -19 -4 -32 20 -23 44 9 25 41 13 41 -16z"/>
<path d="M1899 3031 c8 -5 10 -14 6 -22 -6 -11 -5 -11 5 -2 14 12 6 33 -13 33
-8 0 -7 -3 2 -9z"/>
<path d="M1984 2935 c11 -8 22 -12 25 -9 6 6 -19 24 -34 24 -5 -1 -1 -7 9 -15z"/>
<path d="M3015 2309 c-4 -6 -5 -13 -2 -16 7 -7 27 6 27 18 0 12 -17 12 -25 -2z"/>
<path d="M3006 2269 c4 -8 -1 -9 -17 -5 -19 6 -21 5 -7 -4 17 -11 48 -4 48 11
0 5 -7 9 -16 9 -8 0 -12 -5 -8 -11z"/>
</g>
</svg>
