<svg width="44" height="44" viewBox="0 0 44 44" fill="none" xmlns="http://www.w3.org/2000/svg">
<g clip-path="url(#clip0_1_3419)">
<rect width="44" height="44" rx="8" fill="#151414"/>
<mask id="mask0_1_3419" style="mask-type:luminance" maskUnits="userSpaceOnUse" x="0" y="0" width="44" height="44">
<path d="M44 22C44 9.84974 34.1503 0 22 0C9.84974 0 0 9.84974 0 22C0 34.1503 9.84974 44 22 44C34.1503 44 44 34.1503 44 22Z" fill="white"/>
</mask>
<g mask="url(#mask0_1_3419)">
<path d="M44 22C44 9.84974 34.1503 0 22 0C9.84974 0 0 9.84974 0 22C0 34.1503 9.84974 44 22 44C34.1503 44 44 34.1503 44 22Z" fill="#151414"/>
<mask id="mask1_1_3419" style="mask-type:luminance" maskUnits="userSpaceOnUse" x="0" y="0" width="44" height="44">
<path d="M28.875 0H15.125C6.77169 0 0 6.77169 0 15.125V28.875C0 37.2283 6.77169 44 15.125 44H28.875C37.2283 44 44 37.2283 44 28.875V15.125C44 6.77169 37.2283 0 28.875 0Z" fill="white"/>
</mask>
<g mask="url(#mask1_1_3419)">
<path d="M19.4843 23.821C20.6628 21.9017 23.1447 21.5085 24.6748 23.8738L29.0911 31.3474H26.3155L21.7358 23.8738C20.9636 22.869 20.3911 22.7819 19.4843 23.821Z" fill="#D74D26"/>
<path d="M19.4843 23.821C20.6628 21.9017 23.1447 21.5085 24.6748 23.8738L29.0911 31.3474H26.3155L21.7358 23.8738C20.9636 22.869 20.3911 22.7819 19.4843 23.821Z" fill="#D74D26"/>
<path d="M19.4843 23.821C20.6628 21.9017 23.1447 21.5085 24.6748 23.8738L29.0911 31.3474H26.3155L21.7358 23.8738C20.9636 22.869 20.3911 22.7819 19.4843 23.821Z" fill="#D74D26"/>
<path d="M24.633 23.8064C23.4613 21.864 20.7568 21.5043 19.2267 23.8696L14.8833 31.22H17.6616L22.1657 23.8696C22.9379 22.8648 23.7263 22.7673 24.633 23.8064Z" fill="#D74D26"/>
<path d="M24.633 23.8064C23.4613 21.864 20.7568 21.5043 19.2267 23.8696L14.8833 31.22H17.6616L22.1657 23.8696C22.9379 22.8648 23.7263 22.7673 24.633 23.8064Z" fill="#D74D26"/>
<path d="M25.5906 11.6395L37.2449 31.3407H34.47L22.3843 11.6395C21.2126 9.82043 20.1504 9.72758 18.5612 11.547C20.9968 8.1864 22.9084 7.49784 25.5906 11.6395Z" fill="#D74D26"/>
<path d="M25.5906 11.6395L37.2449 31.3407H34.47L22.3843 11.6395C21.2126 9.82043 20.1504 9.72758 18.5612 11.547C20.9968 8.1864 22.9084 7.49784 25.5906 11.6395Z" fill="#D74D26"/>
<path d="M25.5906 11.6395L37.2449 31.3407H34.47L22.3843 11.6395C21.2126 9.82043 20.1504 9.72758 18.5612 11.547C20.9968 8.1864 22.9084 7.49784 25.5906 11.6395Z" fill="#D74D26"/>
<path d="M18.3735 11.6395L6.71924 31.3405H9.49408L21.5798 11.6395C22.862 9.86275 23.9369 9.72758 25.5262 11.547C23.4606 8.1864 21.0556 7.49784 18.3735 11.6395Z" fill="#D74D26"/>
<path d="M18.3735 11.6395L6.71924 31.3405H9.49408L21.5798 11.6395C22.862 9.86275 23.9369 9.72758 25.5262 11.547C23.4606 8.1864 21.0556 7.49784 18.3735 11.6395Z" fill="#D74D26"/>
</g>
</g>
</g>
<defs>
<clipPath id="clip0_1_3419">
<rect width="44" height="44" fill="white"/>
</clipPath>
</defs>
</svg>
