<svg width="44" height="44" viewBox="0 0 44 44" fill="none" xmlns="http://www.w3.org/2000/svg">
<g clip-path="url(#clip0_1_3479)">
<rect width="44" height="44" rx="8" fill="#151414"/>
<mask id="mask0_1_3479" style="mask-type:luminance" maskUnits="userSpaceOnUse" x="0" y="0" width="44" height="44">
<path d="M44 0H0V44H44V0Z" fill="white"/>
</mask>
<g mask="url(#mask0_1_3479)">
<path d="M22 44C34.1503 44 44 34.1503 44 22C44 9.84974 34.1503 0 22 0C9.84974 0 0 9.84974 0 22C0 34.1503 9.84974 44 22 44Z" fill="#151414"/>
<path d="M36.9189 19.7729L30.0847 10.8951C29.576 10.2334 28.7887 9.85421 27.9255 9.85421C27.0623 9.85421 26.2756 10.2334 25.7664 10.8951L25.0236 11.8607L24.2802 10.8951C23.771 10.2334 22.9843 9.85421 22.1211 9.85421C21.2579 9.85421 20.4712 10.2334 19.962 10.8951L19.2276 11.8489L18.4933 10.8945C17.984 10.2334 17.1968 9.85421 16.3336 9.85421C15.4703 9.85421 14.6837 10.2334 14.1744 10.8951L7.34078 19.7729C6.36838 21.0365 6.36838 22.7338 7.34078 23.9974L14.1744 32.8758C14.6837 33.537 15.4703 33.9167 16.3336 33.9167C17.1968 33.9167 17.9834 33.5375 18.4927 32.8758L22.1295 28.1509L22.8802 29.1261C22.883 29.1293 22.8853 29.1325 22.8881 29.1363L25.7664 32.8758C26.2756 33.537 27.0623 33.9167 27.9255 33.9167C28.7887 33.9167 29.5754 33.5375 30.0847 32.8758L36.9183 23.9979C37.8912 22.7343 37.8912 21.0365 36.9189 19.7729ZM21.0525 11.6508C21.3046 11.3234 21.694 11.136 22.1211 11.136C22.5482 11.136 22.9376 11.324 23.1897 11.6508L24.1874 12.947L22.1301 15.62L20.0638 12.9358L21.0525 11.6508ZM17.4021 32.1195C17.15 32.4469 16.7606 32.6344 16.3336 32.6344C15.9064 32.6344 15.517 32.4464 15.265 32.1195L8.43129 23.2412C7.80669 22.43 7.80669 21.3399 8.43129 20.5286L15.265 11.6508C15.517 11.3234 15.9064 11.136 16.3336 11.136C16.7606 11.136 17.15 11.324 17.4021 11.6508L18.3908 12.9352L13.1277 19.7729C12.1553 21.0365 12.1553 22.7338 13.13 24.0001L13.5307 24.5155L13.5312 24.5149L17.0589 29.1261C17.5079 29.7098 18.1742 30.0735 18.9175 30.151L17.4021 32.1195ZM20.2883 28.3704L20.2872 28.3698C20.0351 28.6972 19.6457 28.8847 19.2186 28.8847C18.7915 28.8847 18.4021 28.6967 18.1511 28.3709L14.5238 23.6294L14.5221 23.6305L14.2189 23.2407C13.5942 22.4294 13.5942 21.3394 14.2189 20.5281L19.2276 14.022L21.2939 16.7063L18.9333 19.7729C17.9609 21.0365 17.9609 22.7338 18.9333 23.9974L21.2939 27.0641L20.2883 28.3704ZM22.1295 17.7926L24.2358 20.5292C24.8604 21.3404 24.8604 22.4304 24.2358 23.2417L22.1295 25.9783L20.0233 23.2417C19.3986 22.4304 19.3986 21.3404 20.0233 20.5292L22.1295 17.7926ZM25.3269 23.9974C26.2993 22.7338 26.2993 21.0365 25.3269 19.7729L22.9663 16.7063L25.0236 14.0333L30.0239 20.5292C30.6485 21.3404 30.6485 22.4304 30.0211 23.2455L29.2203 24.3018L26.1079 28.3698C25.8558 28.6972 25.4664 28.8847 25.0394 28.8847C24.6168 28.8847 24.2313 28.701 23.9792 28.38L22.9663 27.0641L25.3269 23.9974ZM35.8283 23.2417L28.9941 32.1195C28.742 32.4469 28.3526 32.6344 27.9255 32.6344C27.4984 32.6344 27.109 32.4464 26.8569 32.1195L25.3415 30.1505C26.0843 30.0725 26.7495 29.7087 27.1991 29.1245L29.8731 25.629L29.8759 25.6312L30.3143 25.0522L30.8263 24.383L30.823 24.3809L31.1133 23.9974C32.0857 22.7338 32.0857 21.0365 31.1133 19.7729L25.8598 12.947L26.8575 11.6508C27.1096 11.3234 27.499 11.136 27.9261 11.136C28.3532 11.136 28.7426 11.324 28.9947 11.6508L35.8283 20.5292C36.4523 21.3404 36.4523 22.4304 35.8283 23.2417Z" fill="url(#paint0_linear_1_3479)"/>
<path opacity="0.6" d="M19.2189 30.1669C19.1153 30.1669 19.013 30.161 18.9122 30.1504L17.4446 32.0698L18.551 32.8111L21.234 29.3151C20.7275 29.8577 19.9949 30.1669 19.2189 30.1669Z" fill="url(#paint1_linear_1_3479)"/>
<path opacity="0.6" d="M25.0328 30.1669C25.1364 30.1669 25.2388 30.1611 25.3395 30.1505L26.8071 32.0699L25.7008 32.8111L23.0312 29.3188C23.5377 29.8615 24.2569 30.1669 25.0328 30.1669Z" fill="url(#paint2_linear_1_3479)"/>
<path opacity="0.6" d="M21.2835 27.056L22.1372 28.1616L20.8396 29.8134L19.9865 28.74L21.2835 27.056Z" fill="url(#paint3_linear_1_3479)"/>
<path d="M18.3913 12.9347L19.2309 14.0301L16.1928 17.9897L15.1304 17.1933L18.3913 12.9347Z" fill="url(#paint4_linear_1_3479)"/>
<path d="M21.2952 16.7036L22.1257 17.7984L20.1888 20.3396L19.1264 19.5432L21.2952 16.7036Z" fill="url(#paint5_linear_1_3479)"/>
<path d="M24.1878 12.9453L25.0234 14.0348L22.9689 16.7031L22.1316 15.6152L24.1878 12.9453Z" fill="url(#paint6_linear_1_3479)"/>
</g>
</g>
<defs>
<linearGradient id="paint0_linear_1_3479" x1="11.5524" y1="30.9774" x2="25.5925" y2="11.0464" gradientUnits="userSpaceOnUse">
<stop stop-color="#FF8506"/>
<stop offset="0.5805" stop-color="#FD3947"/>
<stop offset="1" stop-color="#FB0078"/>
</linearGradient>
<linearGradient id="paint1_linear_1_3479" x1="20.3842" y1="29.2884" x2="18.2533" y2="32.4657" gradientUnits="userSpaceOnUse">
<stop stop-color="#78005B"/>
<stop offset="0.3483" stop-color="#7A025A" stop-opacity="0.6517"/>
<stop offset="0.51" stop-color="#820955" stop-opacity="0.49"/>
<stop offset="0.6332" stop-color="#8E154E" stop-opacity="0.3668"/>
<stop offset="0.7369" stop-color="#A12643" stop-opacity="0.2631"/>
<stop offset="0.8283" stop-color="#B83C36" stop-opacity="0.1717"/>
<stop offset="0.9111" stop-color="#D65725" stop-opacity="0.0889"/>
<stop offset="0.9857" stop-color="#F87711" stop-opacity="0.0143"/>
<stop offset="1" stop-color="#FF7E0D" stop-opacity="0"/>
</linearGradient>
<linearGradient id="paint2_linear_1_3479" x1="25.9725" y1="32.1321" x2="23.9684" y2="29.0949" gradientUnits="userSpaceOnUse">
<stop stop-color="#FF7E0D" stop-opacity="0"/>
<stop offset="0.00928743" stop-color="#F97811" stop-opacity="0.0127"/>
<stop offset="0.0651" stop-color="#D65825" stop-opacity="0.0888"/>
<stop offset="0.1269" stop-color="#B93D36" stop-opacity="0.1729"/>
<stop offset="0.1949" stop-color="#A12643" stop-opacity="0.2657"/>
<stop offset="0.272" stop-color="#8F154E" stop-opacity="0.3707"/>
<stop offset="0.3632" stop-color="#820955" stop-opacity="0.495"/>
<stop offset="0.4822" stop-color="#7A025A" stop-opacity="0.6573"/>
<stop offset="0.7336" stop-color="#78005B"/>
</linearGradient>
<linearGradient id="paint3_linear_1_3479" x1="20.4596" y1="29.2728" x2="22.0802" y2="26.8168" gradientUnits="userSpaceOnUse">
<stop stop-color="#FF7E0D" stop-opacity="0"/>
<stop offset="0.0133" stop-color="#F97910" stop-opacity="0.0192"/>
<stop offset="0.1144" stop-color="#D25427" stop-opacity="0.1659"/>
<stop offset="0.219" stop-color="#B1363A" stop-opacity="0.3175"/>
<stop offset="0.3263" stop-color="#981E48" stop-opacity="0.4731"/>
<stop offset="0.4375" stop-color="#860D53" stop-opacity="0.6344"/>
<stop offset="0.5551" stop-color="#7B0359" stop-opacity="0.8048"/>
<stop offset="0.6897" stop-color="#78005B"/>
</linearGradient>
<linearGradient id="paint4_linear_1_3479" x1="15.2993" y1="17.3533" x2="18.971" y2="13.4848" gradientUnits="userSpaceOnUse">
<stop stop-color="#FF4630" stop-opacity="0"/>
<stop offset="0.5722" stop-color="#B31F48" stop-opacity="0.5722"/>
<stop offset="1" stop-color="#78005B"/>
</linearGradient>
<linearGradient id="paint5_linear_1_3479" x1="19.3962" y1="19.7991" x2="21.8419" y2="17.2222" gradientUnits="userSpaceOnUse">
<stop stop-color="#FF4630" stop-opacity="0"/>
<stop offset="0.5722" stop-color="#B31F48" stop-opacity="0.5722"/>
<stop offset="1" stop-color="#78005B"/>
</linearGradient>
<linearGradient id="paint6_linear_1_3479" x1="22.284" y1="16.0529" x2="24.7378" y2="13.4675" gradientUnits="userSpaceOnUse">
<stop stop-color="#FF4630" stop-opacity="0"/>
<stop offset="0.5722" stop-color="#B31F48" stop-opacity="0.5722"/>
<stop offset="1" stop-color="#78005B"/>
</linearGradient>
<clipPath id="clip0_1_3479">
<rect width="44" height="44" fill="white"/>
</clipPath>
</defs>
</svg>
