<svg xmlns="http://www.w3.org/2000/svg" version="1.1" width="400px" height="400px" style="shape-rendering:geometricPrecision; text-rendering:geometricPrecision; image-rendering:optimizeQuality; fill-rule:evenodd; clip-rule:evenodd" xmlns:xlink="http://www.w3.org/1999/xlink">
<g><path style="opacity:1" fill="#1a1b1f" d="M -0.5,-0.5 C 132.833,-0.5 266.167,-0.5 399.5,-0.5C 399.5,4.83333 399.5,10.1667 399.5,15.5C 266.167,15.5 132.833,15.5 -0.5,15.5C -0.5,10.1667 -0.5,4.83333 -0.5,-0.5 Z"/></g>
<g><path style="opacity:1" fill="#161920" d="M -0.5,15.5 C 132.833,15.5 266.167,15.5 399.5,15.5C 399.5,143.5 399.5,271.5 399.5,399.5C 266.167,399.5 132.833,399.5 -0.5,399.5C -0.5,271.5 -0.5,143.5 -0.5,15.5 Z"/></g>
<g><path style="opacity:1" fill="#cfb695" d="M 224.5,76.5 C 227.694,76.1756 228.694,77.3422 227.5,80C 226.207,80.49 224.873,80.6567 223.5,80.5C 223.433,79.0413 223.766,77.7079 224.5,76.5 Z"/></g>
<g><path style="opacity:1" fill="#dbc69a" d="M 171.5,77.5 C 175.161,77.3501 176.161,78.8501 174.5,82C 173.207,82.49 171.873,82.6567 170.5,82.5C 170.366,80.7085 170.699,79.0418 171.5,77.5 Z"/></g>
<g><path style="opacity:1" fill="#171b1a" d="M 218.5,90.5 C 205.437,88.9001 192.437,89.2335 179.5,91.5C 179.611,90.8826 179.944,90.3826 180.5,90C 175.833,89.6667 171.167,89.3333 166.5,89C 164.519,88.3946 164.185,87.3946 165.5,86C 170.324,85.8864 174.99,85.0531 179.5,83.5C 181.94,84.8932 184.607,85.7266 187.5,86C 186.833,86.3333 186.167,86.6667 185.5,87C 192.761,88.348 200.094,88.848 207.5,88.5C 207.5,87.5 207.5,86.5 207.5,85.5C 199.937,85.8052 192.603,84.8052 185.5,82.5C 192.803,81.5027 200.137,81.1694 207.5,81.5C 207.5,82.5 207.5,83.5 207.5,84.5C 212.813,83.9022 218.146,83.5688 223.5,83.5C 223.5,84.5 223.5,85.5 223.5,86.5C 225.288,86.2148 226.955,86.5481 228.5,87.5C 228.291,88.086 227.957,88.586 227.5,89C 223.286,87.9618 218.953,87.6284 214.5,88C 214.167,88.3333 213.833,88.6667 213.5,89C 215.382,89.1981 217.048,89.6981 218.5,90.5 Z"/></g>
<g><path style="opacity:1" fill="#c3b291" d="M 144.5,86.5 C 146.912,86.6941 147.912,88.0274 147.5,90.5C 146.167,90.5 144.833,90.5 143.5,90.5C 143.433,89.0413 143.766,87.7079 144.5,86.5 Z"/></g>
<g><path style="opacity:1" fill="#fae3a9" d="M 218.5,90.5 C 229.836,93.1676 240.836,96.8342 251.5,101.5C 257.077,104.403 262.41,107.737 267.5,111.5C 282.938,123.941 294.605,139.275 302.5,157.5C 305.483,166.108 307.817,174.775 309.5,183.5C 310.903,201.079 308.403,218.079 302,234.5C 300.985,237.21 299.485,239.543 297.5,241.5C 296.808,240.975 296.308,240.308 296,239.5C 295.333,231.833 295.333,224.167 296,216.5C 300.147,210.676 300.48,204.676 297,198.5C 298.7,188.397 295.7,180.063 288,173.5C 288.178,168.075 286.845,163.075 284,158.5C 280.031,155.107 276.197,151.607 272.5,148C 266.654,147.071 260.987,145.571 255.5,143.5C 251.979,142.834 248.313,142.167 244.5,141.5C 246.486,139.605 246.819,137.605 245.5,135.5C 236.599,134.257 227.599,132.757 218.5,131C 214.837,123.477 210.337,116.643 205,110.5C 204.228,110.645 203.561,110.978 203,111.5C 199.354,119.29 195.854,127.123 192.5,135C 179.374,138.632 166.04,140.965 152.5,142C 148.888,143.139 145.554,144.806 142.5,147C 138.452,147.304 134.452,147.804 130.5,148.5C 130.5,147.5 130.5,146.5 130.5,145.5C 134.226,145.823 137.893,145.489 141.5,144.5C 147.223,139.672 153.723,138.339 161,140.5C 162.225,140.138 163.391,139.638 164.5,139C 161.654,138.229 158.82,137.395 156,136.5C 153.343,136.906 150.676,137.24 148,137.5C 145.113,136.896 142.28,136.229 139.5,135.5C 139.5,132.833 139.5,130.167 139.5,127.5C 140.873,127.657 142.207,127.49 143.5,127C 139.735,125.782 135.901,124.616 132,123.5C 129.208,124.216 126.374,124.549 123.5,124.5C 123.5,125.5 123.5,126.5 123.5,127.5C 122.5,127.5 121.5,127.5 120.5,127.5C 120.227,129.958 121.227,131.625 123.5,132.5C 124.466,134.396 124.799,136.396 124.5,138.5C 125.5,138.5 126.5,138.5 127.5,138.5C 127.65,141.459 126.65,143.959 124.5,146C 123.167,146.667 121.833,146.667 120.5,146C 121.833,145.333 121.833,144.667 120.5,144C 121.793,143.51 123.127,143.343 124.5,143.5C 124.657,142.127 124.49,140.793 124,139.5C 121.618,137.741 119.452,135.741 117.5,133.5C 116.054,134.171 115.388,135.338 115.5,137C 117.16,138.842 118.16,141.009 118.5,143.5C 117.5,143.5 116.5,143.5 115.5,143.5C 115.833,146.5 114.5,147.833 111.5,147.5C 111.5,149.167 111.5,150.833 111.5,152.5C 114.742,152.467 115.075,153.8 112.5,156.5C 110.117,155.538 109.117,156.538 109.5,159.5C 107.833,159.5 106.167,159.5 104.5,159.5C 104.101,156.012 103.434,155.846 102.5,159C 101.581,165.629 100.747,172.129 100,178.5C 100.333,178.167 100.667,177.833 101,177.5C 102.092,180.044 102.759,182.711 103,185.5C 104,186.833 105,186.833 106,185.5C 106.662,183.187 107.162,180.854 107.5,178.5C 105.641,178.539 104.308,177.706 103.5,176C 105.193,172.44 106.359,168.606 107,164.5C 108.431,168.635 108.931,172.968 108.5,177.5C 109.978,177.762 111.311,177.429 112.5,176.5C 111.691,174.929 111.357,173.262 111.5,171.5C 112.5,171.5 113.5,171.5 114.5,171.5C 114.335,168.482 114.502,165.482 115,162.5C 117.057,159.053 118.557,155.387 119.5,151.5C 121.737,150.551 124.071,149.884 126.5,149.5C 118.571,156.268 114.904,164.935 115.5,175.5C 111.659,179.183 108.826,183.517 107,188.5C 106.873,195.353 106.039,202.019 104.5,208.5C 104.073,211.826 105.073,214.492 107.5,216.5C 107.557,217.609 107.89,218.609 108.5,219.5C 108.811,227.513 108.978,235.513 109,243.5C 108.282,244.451 107.449,244.617 106.5,244C 105.601,242.348 104.601,240.848 103.5,239.5C 99.2371,229.063 96.2371,218.396 94.5,207.5C 94.3335,198.161 94.5002,188.827 95,179.5C 96.4817,174.225 97.6483,168.892 98.5,163.5C 103.586,150.664 110.253,138.664 118.5,127.5C 121.833,124.833 124.833,121.833 127.5,118.5C 132.55,114.115 137.884,110.115 143.5,106.5C 153.523,100.151 164.189,95.4839 175.5,92.5C 176.959,92.5674 178.292,92.2341 179.5,91.5C 192.437,89.2335 205.437,88.9001 218.5,90.5 Z"/></g>
<g><path style="opacity:1" fill="#1d1e1c" d="M 175.5,92.5 C 164.189,95.4839 153.523,100.151 143.5,106.5C 143.995,104.176 143.995,102.009 143.5,100C 143.833,99.5 144.167,99 144.5,98.5C 145.386,99.325 145.719,100.325 145.5,101.5C 147.591,101.682 149.591,101.348 151.5,100.5C 152.386,99.675 152.719,98.675 152.5,97.5C 150.571,97.7692 148.905,97.2692 147.5,96C 149.577,95.8078 151.577,95.3078 153.5,94.5C 155.661,93.2224 157.827,91.8891 160,90.5C 161.32,90.799 162.82,90.9657 164.5,91C 163.549,91.7175 163.383,92.5509 164,93.5C 167.73,92.5399 171.563,92.2065 175.5,92.5 Z"/></g>
<g><path style="opacity:1" fill="#bab297" d="M 271.5,93.5 C 273.912,93.6941 274.912,95.0274 274.5,97.5C 272.517,97.8432 271.183,97.1765 270.5,95.5C 270.833,94.8333 271.167,94.1667 271.5,93.5 Z"/></g>
<g><path style="opacity:1" fill="#dbc28e" d="M 120.5,100.5 C 123.91,100.384 125.244,102.05 124.5,105.5C 122.833,105.5 121.167,105.5 119.5,105.5C 119.366,103.708 119.699,102.042 120.5,100.5 Z"/></g>
<g><path style="opacity:1" fill="#191b1a" d="M 293.5,102.5 C 292.192,103.232 290.858,104.066 289.5,105C 292.381,106.358 295.214,107.858 298,109.5C 298.847,111.854 299.68,114.188 300.5,116.5C 298.259,115.7 297.259,114.034 297.5,111.5C 296.5,111.5 295.5,111.5 294.5,111.5C 294.032,116.688 293.032,116.688 291.5,111.5C 295.423,109.887 295.256,108.554 291,107.5C 288.338,109.068 287.172,111.401 287.5,114.5C 286.5,114.5 285.5,114.5 284.5,114.5C 284.56,118.327 283.393,118.994 281,116.5C 281.152,114.924 281.985,113.591 283.5,112.5C 281.838,111.673 280.505,110.507 279.5,109C 275.789,108.175 272.122,108.341 268.5,109.5C 268.137,110.183 267.804,110.85 267.5,111.5C 262.41,107.737 257.077,104.403 251.5,101.5C 254.5,101.5 257.5,101.5 260.5,101.5C 260.33,100.178 260.663,99.0113 261.5,98C 264.368,96.617 267.368,95.7837 270.5,95.5C 271.183,97.1765 272.517,97.8432 274.5,97.5C 274.912,95.0274 273.912,93.6941 271.5,93.5C 271.369,92.6236 271.702,91.9569 272.5,91.5C 273.736,92.2458 275.07,92.5792 276.5,92.5C 278.761,99.0707 276.594,101.071 270,98.5C 267.743,99.0899 266.076,100.423 265,102.5C 264.125,100.487 262.791,100.487 261,102.5C 260.14,105.478 261.307,106.812 264.5,106.5C 269.307,105.619 274.141,104.619 279,103.5C 279.833,103.667 280.667,103.833 281.5,104C 281.926,107.592 283.926,109.092 287.5,108.5C 287.5,106.5 287.5,104.5 287.5,102.5C 289.5,102.5 291.5,102.5 293.5,102.5 Z"/></g>
<g><path style="opacity:1" fill="#efc98b" d="M 310.5,103.5 C 310.918,104.222 311.584,104.722 312.5,105C 310.246,106.256 307.912,107.423 305.5,108.5C 304.308,110.742 303.308,113.075 302.5,115.5C 302.043,116.298 301.376,116.631 300.5,116.5C 299.68,114.188 298.847,111.854 298,109.5C 295.214,107.858 292.381,106.358 289.5,105C 290.858,104.066 292.192,103.232 293.5,102.5C 295.17,102.249 296.67,101.582 298,100.5C 300.456,90.1768 302.789,90.5102 305,101.5C 306.725,102.464 308.559,103.131 310.5,103.5 Z"/></g>
<g><path style="opacity:1" fill="#1a1b1b" d="M 310.5,103.5 C 315.886,102.427 318.719,104.427 319,109.5C 316.129,105.79 312.962,105.624 309.5,109C 311.9,109.186 314.234,109.686 316.5,110.5C 314.604,111.466 312.604,111.799 310.5,111.5C 310.708,113.92 310.374,116.253 309.5,118.5C 315.03,118.385 317.697,121.385 317.5,127.5C 316.209,127.263 315.209,127.596 314.5,128.5C 312.833,128.5 311.167,128.5 309.5,128.5C 308.831,132.676 310.331,134.009 314,132.5C 314.483,131.552 314.649,130.552 314.5,129.5C 316.088,130.635 316.421,131.969 315.5,133.5C 312.263,135.015 309.263,134.681 306.5,132.5C 311.789,124.745 309.789,120.412 300.5,119.5C 300.5,118.5 300.5,117.5 300.5,116.5C 301.376,116.631 302.043,116.298 302.5,115.5C 303.308,113.075 304.308,110.742 305.5,108.5C 307.912,107.423 310.246,106.256 312.5,105C 311.584,104.722 310.918,104.222 310.5,103.5 Z"/></g>
<g><path style="opacity:1" fill="#242216" d="M 127.5,118.5 C 124.833,121.833 121.833,124.833 118.5,127.5C 118.516,121.484 121.516,118.484 127.5,118.5 Z"/></g>
<g><path style="opacity:1" fill="#fde5a5" d="M 130.5,148.5 C 129.167,148.833 127.833,149.167 126.5,149.5C 124.071,149.884 121.737,150.551 119.5,151.5C 118.557,155.387 117.057,159.053 115,162.5C 114.502,165.482 114.335,168.482 114.5,171.5C 113.5,171.5 112.5,171.5 111.5,171.5C 111.357,173.262 111.691,174.929 112.5,176.5C 111.311,177.429 109.978,177.762 108.5,177.5C 108.931,172.968 108.431,168.635 107,164.5C 106.359,168.606 105.193,172.44 103.5,176C 104.308,177.706 105.641,178.539 107.5,178.5C 107.162,180.854 106.662,183.187 106,185.5C 105,186.833 104,186.833 103,185.5C 102.759,182.711 102.092,180.044 101,177.5C 100.667,177.833 100.333,178.167 100,178.5C 100.747,172.129 101.581,165.629 102.5,159C 103.434,155.846 104.101,156.012 104.5,159.5C 106.167,159.5 107.833,159.5 109.5,159.5C 109.117,156.538 110.117,155.538 112.5,156.5C 115.075,153.8 114.742,152.467 111.5,152.5C 111.5,150.833 111.5,149.167 111.5,147.5C 114.5,147.833 115.833,146.5 115.5,143.5C 116.5,143.5 117.5,143.5 118.5,143.5C 118.16,141.009 117.16,138.842 115.5,137C 115.388,135.338 116.054,134.171 117.5,133.5C 119.452,135.741 121.618,137.741 124,139.5C 124.49,140.793 124.657,142.127 124.5,143.5C 123.127,143.343 121.793,143.51 120.5,144C 121.833,144.667 121.833,145.333 120.5,146C 121.833,146.667 123.167,146.667 124.5,146C 126.65,143.959 127.65,141.459 127.5,138.5C 126.5,138.5 125.5,138.5 124.5,138.5C 124.799,136.396 124.466,134.396 123.5,132.5C 121.227,131.625 120.227,129.958 120.5,127.5C 121.5,127.5 122.5,127.5 123.5,127.5C 123.5,126.5 123.5,125.5 123.5,124.5C 126.374,124.549 129.208,124.216 132,123.5C 135.901,124.616 139.735,125.782 143.5,127C 142.207,127.49 140.873,127.657 139.5,127.5C 139.5,130.167 139.5,132.833 139.5,135.5C 142.28,136.229 145.113,136.896 148,137.5C 150.676,137.24 153.343,136.906 156,136.5C 158.82,137.395 161.654,138.229 164.5,139C 163.391,139.638 162.225,140.138 161,140.5C 153.723,138.339 147.223,139.672 141.5,144.5C 137.893,145.489 134.226,145.823 130.5,145.5C 130.5,146.5 130.5,147.5 130.5,148.5 Z"/></g>
<g><path style="opacity:1" fill="#efc98b" d="M 89.5,118.5 C 91.0076,120.985 92.341,123.652 93.5,126.5C 101.465,128.468 101.465,130.468 93.5,132.5C 92.0633,135.041 90.8966,137.708 90,140.5C 88.6189,138.365 87.6189,136.032 87,133.5C 84.5704,132.035 82.0704,130.702 79.5,129.5C 81.8333,128.167 84.1667,126.833 86.5,125.5C 87.3124,123.055 88.3124,120.722 89.5,118.5 Z"/></g>
<g><path style="opacity:1" fill="#c8bc8b" d="M 314.5,128.5 C 314.5,128.833 314.5,129.167 314.5,129.5C 314.649,130.552 314.483,131.552 314,132.5C 310.331,134.009 308.831,132.676 309.5,128.5C 311.167,128.5 312.833,128.5 314.5,128.5 Z"/></g>
<g><path style="opacity:1" fill="#ebcc89" d="M 201.5,127.5 C 202.396,132.915 201.063,137.582 197.5,141.5C 192.669,143.293 187.669,144.626 182.5,145.5C 179.794,145.575 177.127,145.908 174.5,146.5C 172.255,146.459 171.588,145.625 172.5,144C 180.134,142.175 187.801,140.508 195.5,139C 197.132,134.9 199.132,131.067 201.5,127.5 Z"/></g>
<g><path style="opacity:1" fill="#f0d595" d="M 215.5,135.5 C 223.341,136.647 231.341,137.647 239.5,138.5C 239.737,139.791 239.404,140.791 238.5,141.5C 230.619,139.944 222.619,138.611 214.5,137.5C 211.623,134.239 209.289,130.572 207.5,126.5C 205.262,123.567 204.262,123.901 204.5,127.5C 203.5,127.5 202.5,127.5 201.5,127.5C 201.755,124.984 202.589,122.65 204,120.5C 204.718,119.549 205.551,119.383 206.5,120C 209.638,125.112 212.638,130.279 215.5,135.5 Z"/></g>
<g><path style="opacity:1" fill="#221f19" d="M 245.5,135.5 C 245.778,137.346 245.111,138.68 243.5,139.5C 237.474,137.47 231.308,135.803 225,134.5C 221.895,135.367 218.728,135.701 215.5,135.5C 212.638,130.279 209.638,125.112 206.5,120C 205.551,119.383 204.718,119.549 204,120.5C 202.589,122.65 201.755,124.984 201.5,127.5C 199.132,131.067 197.132,134.9 195.5,139C 187.801,140.508 180.134,142.175 172.5,144C 171.588,145.625 172.255,146.459 174.5,146.5C 176.934,147.985 179.267,149.652 181.5,151.5C 180.5,151.5 179.5,151.5 178.5,151.5C 178.5,152.5 178.5,153.5 178.5,154.5C 174.883,155.642 171.55,157.308 168.5,159.5C 167.325,159.719 166.325,159.386 165.5,158.5C 166.77,157.712 167.77,156.712 168.5,155.5C 170.123,154.221 171.79,152.887 173.5,151.5C 171.929,149.585 169.929,148.585 167.5,148.5C 167.082,147.778 166.416,147.278 165.5,147C 158.233,145.483 151.567,146.65 145.5,150.5C 143.886,152.075 141.886,152.741 139.5,152.5C 131.101,151.87 125.434,155.537 122.5,163.5C 121.883,163.611 121.383,163.944 121,164.5C 120.66,169.62 119.826,174.62 118.5,179.5C 116.833,179.5 115.167,179.5 113.5,179.5C 113.5,180.833 113.5,182.167 113.5,183.5C 111.045,188.303 110.378,193.303 111.5,198.5C 111.5,201.5 111.5,204.5 111.5,207.5C 112.242,209.98 113.242,212.313 114.5,214.5C 113.833,214.5 113.5,214.833 113.5,215.5C 111.774,213.058 110.274,210.391 109,207.5C 108.51,208.793 108.343,210.127 108.5,211.5C 107.549,212.919 107.216,214.585 107.5,216.5C 105.073,214.492 104.073,211.826 104.5,208.5C 106.039,202.019 106.873,195.353 107,188.5C 108.826,183.517 111.659,179.183 115.5,175.5C 114.904,164.935 118.571,156.268 126.5,149.5C 127.833,149.167 129.167,148.833 130.5,148.5C 134.452,147.804 138.452,147.304 142.5,147C 145.554,144.806 148.888,143.139 152.5,142C 166.04,140.965 179.374,138.632 192.5,135C 195.854,127.123 199.354,119.29 203,111.5C 203.561,110.978 204.228,110.645 205,110.5C 210.337,116.643 214.837,123.477 218.5,131C 227.599,132.757 236.599,134.257 245.5,135.5 Z"/></g>
<g><path style="opacity:1" fill="#f6c167" d="M 238.5,141.5 C 235.149,144.848 231.482,147.848 227.5,150.5C 227.595,147.728 228.929,145.728 231.5,144.5C 228.746,141.412 225.913,141.079 223,143.5C 222.196,142.196 221.029,141.529 219.5,141.5C 216.137,141.258 212.804,141.258 209.5,141.5C 208.71,142.401 207.71,143.068 206.5,143.5C 202.988,144.055 199.988,143.388 197.5,141.5C 201.063,137.582 202.396,132.915 201.5,127.5C 202.5,127.5 203.5,127.5 204.5,127.5C 204.262,123.901 205.262,123.567 207.5,126.5C 209.289,130.572 211.623,134.239 214.5,137.5C 222.619,138.611 230.619,139.944 238.5,141.5 Z"/></g>
<g><path style="opacity:1" fill="#2e2518" d="M 245.5,135.5 C 246.819,137.605 246.486,139.605 244.5,141.5C 248.313,142.167 251.979,142.834 255.5,143.5C 248.126,142.859 241.126,144.025 234.5,147C 236.134,147.494 237.801,147.66 239.5,147.5C 237.261,148.542 235.095,149.875 233,151.5C 232.506,153.134 232.34,154.801 232.5,156.5C 231.549,155.081 231.216,153.415 231.5,151.5C 230.5,151.5 229.5,151.5 228.5,151.5C 228.5,153.167 228.5,154.833 228.5,156.5C 228.167,156.5 227.833,156.5 227.5,156.5C 227.5,154.5 227.5,152.5 227.5,150.5C 231.482,147.848 235.149,144.848 238.5,141.5C 239.404,140.791 239.737,139.791 239.5,138.5C 231.341,137.647 223.341,136.647 215.5,135.5C 218.728,135.701 221.895,135.367 225,134.5C 231.308,135.803 237.474,137.47 243.5,139.5C 245.111,138.68 245.778,137.346 245.5,135.5 Z"/></g>
<g><path style="opacity:1" fill="#d18924" d="M 209.5,141.5 C 211.124,141.36 212.29,142.027 213,143.5C 213.218,149.096 214.385,154.429 216.5,159.5C 208.187,160.765 199.853,160.765 191.5,159.5C 191.421,158.07 191.754,156.736 192.5,155.5C 190.539,151.993 187.539,150.66 183.5,151.5C 182.833,151.5 182.167,151.5 181.5,151.5C 179.267,149.652 176.934,147.985 174.5,146.5C 177.127,145.908 179.794,145.575 182.5,145.5C 186.918,146.818 191.252,147.818 195.5,148.5C 195.281,149.675 195.614,150.675 196.5,151.5C 200.268,149.294 203.602,146.628 206.5,143.5C 207.71,143.068 208.71,142.401 209.5,141.5 Z"/></g>
<g><path style="opacity:1" fill="#eeac42" d="M 209.5,141.5 C 212.804,141.258 216.137,141.258 219.5,141.5C 221.029,141.529 222.196,142.196 223,143.5C 225.913,141.079 228.746,141.412 231.5,144.5C 228.929,145.728 227.595,147.728 227.5,150.5C 227.5,152.5 227.5,154.5 227.5,156.5C 227.5,158.833 227.5,161.167 227.5,163.5C 224.833,163.167 222.167,162.833 219.5,162.5C 219.5,160.5 218.5,159.5 216.5,159.5C 214.385,154.429 213.218,149.096 213,143.5C 212.29,142.027 211.124,141.36 209.5,141.5 Z"/></g>
<g><path style="opacity:1" fill="#f3b148" d="M 197.5,141.5 C 199.988,143.388 202.988,144.055 206.5,143.5C 203.602,146.628 200.268,149.294 196.5,151.5C 195.614,150.675 195.281,149.675 195.5,148.5C 191.252,147.818 186.918,146.818 182.5,145.5C 187.669,144.626 192.669,143.293 197.5,141.5 Z"/></g>
<g><path style="opacity:1" fill="#efc885" d="M 167.5,148.5 C 164.272,148.701 161.105,148.367 158,147.5C 155.251,147.974 152.751,148.974 150.5,150.5C 149.754,151.736 149.421,153.07 149.5,154.5C 147.833,153.5 146.5,152.167 145.5,150.5C 151.567,146.65 158.233,145.483 165.5,147C 166.416,147.278 167.082,147.778 167.5,148.5 Z"/></g>
<g><path style="opacity:1" fill="#dfb66e" d="M 239.5,147.5 C 245.714,147.228 251.881,147.562 258,148.5C 260.058,149.112 261.891,150.112 263.5,151.5C 262.23,152.288 261.23,153.288 260.5,154.5C 258.589,155.075 256.922,156.075 255.5,157.5C 259.215,150.867 257.215,147.867 249.5,148.5C 243.844,148.296 238.677,149.629 234,152.5C 233.51,153.793 233.343,155.127 233.5,156.5C 236.518,156.335 239.518,156.502 242.5,157C 243.756,157.417 244.423,158.25 244.5,159.5C 240.431,158.311 236.431,157.311 232.5,156.5C 232.34,154.801 232.506,153.134 233,151.5C 235.095,149.875 237.261,148.542 239.5,147.5 Z"/></g>
<g><path style="opacity:1" fill="#f4a93e" d="M 255.5,157.5 C 254.242,159.687 253.242,162.02 252.5,164.5C 251.833,164.5 251.167,164.5 250.5,164.5C 248.46,162.823 246.46,161.156 244.5,159.5C 244.423,158.25 243.756,157.417 242.5,157C 239.518,156.502 236.518,156.335 233.5,156.5C 233.343,155.127 233.51,153.793 234,152.5C 238.677,149.629 243.844,148.296 249.5,148.5C 257.215,147.867 259.215,150.867 255.5,157.5 Z"/></g>
<g><path style="opacity:1" fill="#f0a543" d="M 167.5,148.5 C 169.929,148.585 171.929,149.585 173.5,151.5C 171.79,152.887 170.123,154.221 168.5,155.5C 165.91,156.128 163.577,157.295 161.5,159C 158.628,159.315 155.795,159.815 153,160.5C 151.065,158.966 149.899,156.966 149.5,154.5C 149.421,153.07 149.754,151.736 150.5,150.5C 152.751,148.974 155.251,147.974 158,147.5C 161.105,148.367 164.272,148.701 167.5,148.5 Z"/></g>
<g><path style="opacity:1" fill="#27161f" d="M 181.5,151.5 C 182.167,151.5 182.833,151.5 183.5,151.5C 184.306,152.728 185.306,153.728 186.5,154.5C 186.179,156.048 185.179,156.715 183.5,156.5C 182.609,155.89 181.609,155.557 180.5,155.5C 179.833,155.167 179.167,154.833 178.5,154.5C 178.5,153.5 178.5,152.5 178.5,151.5C 179.5,151.5 180.5,151.5 181.5,151.5 Z"/></g>
<g><path style="opacity:1" fill="#f1a740" d="M 180.5,155.5 C 181.609,155.557 182.609,155.89 183.5,156.5C 185.348,160.854 186.015,165.52 185.5,170.5C 185.44,171.043 185.107,171.376 184.5,171.5C 179.028,169.599 174.028,166.932 169.5,163.5C 168.833,163.5 168.5,163.167 168.5,162.5C 172.204,159.648 176.204,157.315 180.5,155.5 Z"/></g>
<g><path style="opacity:1" fill="#f7a83a" d="M 143.5,156.5 C 146.54,157.734 147.873,160.068 147.5,163.5C 146.5,163.5 145.5,163.5 144.5,163.5C 144.5,168.167 144.5,172.833 144.5,177.5C 143.167,177.5 141.833,177.5 140.5,177.5C 139.833,177.5 139.167,177.5 138.5,177.5C 138.5,177.167 138.5,176.833 138.5,176.5C 137.432,175.566 136.099,175.232 134.5,175.5C 134.666,170.489 134.499,165.489 134,160.5C 132.229,162.584 130.896,164.918 130,167.5C 129.289,165.101 129.456,162.768 130.5,160.5C 130.043,159.702 129.376,159.369 128.5,159.5C 132.638,154.147 137.638,153.147 143.5,156.5 Z"/></g>
<g><path style="opacity:1" fill="#e2c584" d="M 178.5,154.5 C 179.167,154.833 179.833,155.167 180.5,155.5C 176.204,157.315 172.204,159.648 168.5,162.5C 167.167,162.5 166.5,161.833 166.5,160.5C 167.492,160.672 168.158,160.338 168.5,159.5C 171.55,157.308 174.883,155.642 178.5,154.5 Z"/></g>
<g><path style="opacity:1" fill="#c68630" d="M 183.5,151.5 C 187.539,150.66 190.539,151.993 192.5,155.5C 191.754,156.736 191.421,158.07 191.5,159.5C 199.853,160.765 208.187,160.765 216.5,159.5C 218.5,159.5 219.5,160.5 219.5,162.5C 218.167,162.5 216.833,162.5 215.5,162.5C 211.818,162.335 208.152,162.501 204.5,163C 199.892,164.482 195.225,165.649 190.5,166.5C 190.823,162.774 190.489,159.107 189.5,155.5C 188.583,154.873 187.583,154.539 186.5,154.5C 185.306,153.728 184.306,152.728 183.5,151.5 Z"/></g>
<g><path style="opacity:1" fill="#42260b" d="M 260.5,154.5 C 258.969,155.925 259.302,156.591 261.5,156.5C 261.167,157.167 260.833,157.833 260.5,158.5C 257.811,159.189 256.144,160.856 255.5,163.5C 254.542,163.953 253.708,164.619 253,165.5C 252.601,165.272 252.435,164.938 252.5,164.5C 253.242,162.02 254.242,159.687 255.5,157.5C 256.922,156.075 258.589,155.075 260.5,154.5 Z"/></g>
<g><path style="opacity:1" fill="#171a1c" d="M 309.5,183.5 C 307.817,174.775 305.483,166.108 302.5,157.5C 303.833,157.5 305.167,157.5 306.5,157.5C 306.361,154.412 305.361,151.745 303.5,149.5C 307.25,148.974 310.416,149.974 313,152.5C 321.544,150.019 321.044,149.019 311.5,149.5C 311.292,147.08 311.626,144.747 312.5,142.5C 310.955,141.548 309.288,141.215 307.5,141.5C 307.594,144.541 306.094,146.207 303,146.5C 301.368,144.04 301.368,141.707 303,139.5C 304.193,141.443 305.693,141.276 307.5,139C 310.482,138.502 313.482,138.335 316.5,138.5C 317.178,140.858 317.512,143.025 317.5,145C 319.615,144.145 321.948,143.645 324.5,143.5C 324.793,147.437 324.46,151.27 323.5,155C 324.167,155.667 324.833,156.333 325.5,157C 324.045,159.016 322.045,159.849 319.5,159.5C 319.666,164.844 319.499,170.177 319,175.5C 317.783,169.899 317.283,164.232 317.5,158.5C 315.401,157.769 313.401,157.769 311.5,158.5C 313.455,165.035 314.789,171.702 315.5,178.5C 315.462,182.985 314.629,187.319 313,191.5C 311.763,180.678 310.929,170.012 310.5,159.5C 308.833,159.5 307.167,159.5 305.5,159.5C 308.135,167.224 309.468,175.224 309.5,183.5 Z"/></g>
<g><path style="opacity:1" fill="#c5b895" d="M 316.5,153.5 C 319.166,153.066 320.333,154.066 320,156.5C 317.342,157.694 316.176,156.694 316.5,153.5 Z"/></g>
<g><path style="opacity:1" fill="#30220f" d="M 145.5,150.5 C 146.5,152.167 147.833,153.5 149.5,154.5C 149.899,156.966 151.065,158.966 153,160.5C 155.795,159.815 158.628,159.315 161.5,159C 163.577,157.295 165.91,156.128 168.5,155.5C 167.77,156.712 166.77,157.712 165.5,158.5C 166.325,159.386 167.325,159.719 168.5,159.5C 168.158,160.338 167.492,160.672 166.5,160.5C 162.727,161.103 159.061,161.77 155.5,162.5C 150.409,164.337 148.076,168.004 148.5,173.5C 147.167,173.5 146.5,174.167 146.5,175.5C 144.797,170.171 146.13,165.504 150.5,161.5C 149.788,158.788 148.121,157.121 145.5,156.5C 143.81,154.658 141.81,153.325 139.5,152.5C 141.886,152.741 143.886,152.075 145.5,150.5 Z"/></g>
<g><path style="opacity:1" fill="#6a4c26" d="M 166.5,160.5 C 166.5,161.833 167.167,162.5 168.5,162.5C 168.5,163.167 168.833,163.5 169.5,163.5C 169.5,163.833 169.5,164.167 169.5,164.5C 164.993,162.887 160.327,162.221 155.5,162.5C 159.061,161.77 162.727,161.103 166.5,160.5 Z"/></g>
<g><path style="opacity:1" fill="#e8c37e" d="M 280.5,181.5 C 280.666,176.489 280.499,171.489 280,166.5C 279.329,165.748 278.496,165.414 277.5,165.5C 276.525,163.205 275.192,161.205 273.5,159.5C 269.344,157.205 265.011,156.872 260.5,158.5C 260.833,157.833 261.167,157.167 261.5,156.5C 274.989,153.472 281.989,158.972 282.5,173C 282.64,176.15 281.973,178.983 280.5,181.5 Z"/></g>
<g><path style="opacity:1" fill="#f5a93c" d="M 273.5,159.5 C 274.368,163.808 274.534,168.141 274,172.5C 271.799,170.821 269.966,168.821 268.5,166.5C 270.4,185.786 262.733,199.286 245.5,207C 238.191,208.695 230.857,210.195 223.5,211.5C 223.5,212.833 223.5,214.167 223.5,215.5C 220.633,215.369 218.967,216.703 218.5,219.5C 218.5,219.833 218.5,220.167 218.5,220.5C 204.565,225.802 192.231,233.635 181.5,244C 180.072,244.579 178.738,244.412 177.5,243.5C 175.832,241.521 175.166,239.188 175.5,236.5C 175.5,235.5 175.5,234.5 175.5,233.5C 176.219,231.909 177.219,230.409 178.5,229C 177.263,228.768 176.263,228.268 175.5,227.5C 177.292,227.366 178.958,227.699 180.5,228.5C 179.972,229.847 179.805,231.181 180,232.5C 182.037,230.294 184.203,228.294 186.5,226.5C 191.478,224.011 196.478,221.511 201.5,219C 204.531,218.505 207.531,218.671 210.5,219.5C 211.833,219.5 212.5,218.833 212.5,217.5C 213.793,216.158 214.626,214.491 215,212.5C 218.913,210.545 222.246,207.879 225,204.5C 231.522,202.719 238.022,200.886 244.5,199C 249.915,195.99 253.248,191.49 254.5,185.5C 255.207,178.279 255.54,170.946 255.5,163.5C 256.144,160.856 257.811,159.189 260.5,158.5C 265.011,156.872 269.344,157.205 273.5,159.5 Z"/></g>
<g><path style="opacity:1" fill="#d3994c" d="M 143.5,156.5 C 144.167,156.5 144.833,156.5 145.5,156.5C 148.121,157.121 149.788,158.788 150.5,161.5C 146.13,165.504 144.797,170.171 146.5,175.5C 146.762,176.978 146.429,178.311 145.5,179.5C 143.664,178.972 141.997,178.306 140.5,177.5C 141.833,177.5 143.167,177.5 144.5,177.5C 144.5,172.833 144.5,168.167 144.5,163.5C 145.5,163.5 146.5,163.5 147.5,163.5C 147.873,160.068 146.54,157.734 143.5,156.5 Z"/></g>
<g><path style="opacity:1" fill="#e6c27e" d="M 139.5,152.5 C 141.81,153.325 143.81,154.658 145.5,156.5C 144.833,156.5 144.167,156.5 143.5,156.5C 137.638,153.147 132.638,154.147 128.5,159.5C 127.536,162.074 126.036,164.408 124,166.5C 123.502,169.482 123.335,172.482 123.5,175.5C 123.167,175.5 122.833,175.5 122.5,175.5C 121.274,171.633 121.274,167.633 122.5,163.5C 125.434,155.537 131.101,151.87 139.5,152.5 Z"/></g>
<g><path style="opacity:1" fill="#261d14" d="M 232.5,156.5 C 236.431,157.311 240.431,158.311 244.5,159.5C 246.46,161.156 248.46,162.823 250.5,164.5C 254.339,170.382 255.339,176.715 253.5,183.5C 253.672,184.492 253.338,185.158 252.5,185.5C 252.041,189.609 250.041,192.609 246.5,194.5C 247.63,192.685 248.296,190.685 248.5,188.5C 245.962,189.043 243.628,190.043 241.5,191.5C 247.633,186.227 250.133,179.561 249,171.5C 248.8,169.68 247.966,168.347 246.5,167.5C 246.5,166.167 245.833,165.5 244.5,165.5C 241.711,162.117 238.045,160.45 233.5,160.5C 232.523,163.287 232.19,166.287 232.5,169.5C 231.167,169.5 229.833,169.5 228.5,169.5C 225.214,168.793 221.881,168.46 218.5,168.5C 218.103,167.475 217.437,167.308 216.5,168C 210.115,180.035 200.115,187.035 186.5,189C 178.833,189.667 171.167,189.667 163.5,189C 155.5,186.667 147.5,184.333 139.5,182C 129.427,180.411 124.927,184.577 126,194.5C 126.278,195.416 126.778,196.082 127.5,196.5C 127.5,197.167 127.5,197.833 127.5,198.5C 125.351,197.41 124.018,195.576 123.5,193C 124.794,188.822 124.794,184.655 123.5,180.5C 125.901,179.951 128.235,179.118 130.5,178C 133.146,177.503 135.813,177.336 138.5,177.5C 139.167,177.5 139.833,177.5 140.5,177.5C 141.997,178.306 143.664,178.972 145.5,179.5C 146.429,178.311 146.762,176.978 146.5,175.5C 146.5,174.167 147.167,173.5 148.5,173.5C 148.755,175.967 149.755,177.967 151.5,179.5C 151.5,180.167 151.833,180.5 152.5,180.5C 164.951,186.039 177.617,186.705 190.5,182.5C 190.833,182.5 191.167,182.5 191.5,182.5C 199.043,181.563 204.71,177.896 208.5,171.5C 212.201,168.936 212.034,167.269 208,166.5C 202.603,168.283 197.103,169.617 191.5,170.5C 191.918,169.778 192.584,169.278 193.5,169C 191.866,168.506 190.199,168.34 188.5,168.5C 188.817,165.428 188.484,162.428 187.5,159.5C 186.511,163.107 186.177,166.774 186.5,170.5C 186.167,170.5 185.833,170.5 185.5,170.5C 186.015,165.52 185.348,160.854 183.5,156.5C 185.179,156.715 186.179,156.048 186.5,154.5C 187.583,154.539 188.583,154.873 189.5,155.5C 190.489,159.107 190.823,162.774 190.5,166.5C 195.225,165.649 199.892,164.482 204.5,163C 208.152,162.501 211.818,162.335 215.5,162.5C 219.857,164.419 224.523,165.419 229.5,165.5C 228.841,162.545 228.508,159.545 228.5,156.5C 228.5,154.833 228.5,153.167 228.5,151.5C 229.5,151.5 230.5,151.5 231.5,151.5C 231.216,153.415 231.549,155.081 232.5,156.5 Z"/></g>
<g><path style="opacity:1" fill="#e0ae6b" d="M 233.5,160.5 C 238.045,160.45 241.711,162.117 244.5,165.5C 241.655,163.977 238.655,162.977 235.5,162.5C 236.036,165.698 235.369,168.365 233.5,170.5C 234.519,167.206 234.519,163.872 233.5,160.5 Z"/></g>
<g><path style="opacity:1" fill="#452b0f" d="M 233.5,160.5 C 234.519,163.872 234.519,167.206 233.5,170.5C 231.585,170.784 229.919,170.451 228.5,169.5C 229.833,169.5 231.167,169.5 232.5,169.5C 232.19,166.287 232.523,163.287 233.5,160.5 Z"/></g>
<g><path style="opacity:1" fill="#b08143" d="M 227.5,156.5 C 227.833,156.5 228.167,156.5 228.5,156.5C 228.508,159.545 228.841,162.545 229.5,165.5C 224.523,165.419 219.857,164.419 215.5,162.5C 216.833,162.5 218.167,162.5 219.5,162.5C 222.167,162.833 224.833,163.167 227.5,163.5C 227.5,161.167 227.5,158.833 227.5,156.5 Z"/></g>
<g><path style="opacity:1" fill="#d89d4e" d="M 255.5,163.5 C 255.54,170.946 255.207,178.279 254.5,185.5C 254.672,184.508 254.338,183.842 253.5,183.5C 255.339,176.715 254.339,170.382 250.5,164.5C 251.167,164.5 251.833,164.5 252.5,164.5C 252.435,164.938 252.601,165.272 253,165.5C 253.708,164.619 254.542,163.953 255.5,163.5 Z"/></g>
<g><path style="opacity:1" fill="#dd9634" d="M 128.5,159.5 C 129.376,159.369 130.043,159.702 130.5,160.5C 129.456,162.768 129.289,165.101 130,167.5C 130.896,164.918 132.229,162.584 134,160.5C 134.499,165.489 134.666,170.489 134.5,175.5C 136.099,175.232 137.432,175.566 138.5,176.5C 134.278,176.263 130.111,176.596 126,177.5C 124.989,176.944 124.156,176.278 123.5,175.5C 123.335,172.482 123.502,169.482 124,166.5C 126.036,164.408 127.536,162.074 128.5,159.5 Z"/></g>
<g><path style="opacity:1" fill="#1a181c" d="M 191.5,170.5 C 191.5,170.833 191.5,171.167 191.5,171.5C 189.585,171.784 187.919,171.451 186.5,170.5C 186.177,166.774 186.511,163.107 187.5,159.5C 188.484,162.428 188.817,165.428 188.5,168.5C 190.199,168.34 191.866,168.506 193.5,169C 192.584,169.278 191.918,169.778 191.5,170.5 Z"/></g>
<g><path style="opacity:1" fill="#b0813b" d="M 208.5,171.5 C 208.5,170.167 208.5,168.833 208.5,167.5C 205.279,168.111 202.279,169.278 199.5,171C 196.854,171.497 194.187,171.664 191.5,171.5C 191.5,171.167 191.5,170.833 191.5,170.5C 197.103,169.617 202.603,168.283 208,166.5C 212.034,167.269 212.201,168.936 208.5,171.5 Z"/></g>
<g><path style="opacity:1" fill="#cac4a0" d="M 80.5,169.5 C 82.9118,169.694 83.9118,171.027 83.5,173.5C 82.1667,173.5 80.8333,173.5 79.5,173.5C 79.4326,172.041 79.7659,170.708 80.5,169.5 Z"/></g>
<g><path style="opacity:1" fill="#ebbc6f" d="M 155.5,162.5 C 160.327,162.221 164.993,162.887 169.5,164.5C 169.5,164.833 169.5,165.167 169.5,165.5C 165.044,165.409 160.71,164.909 156.5,164C 150.568,167.705 148.901,172.872 151.5,179.5C 149.755,177.967 148.755,175.967 148.5,173.5C 148.076,168.004 150.409,164.337 155.5,162.5 Z"/></g>
<g><path style="opacity:1" fill="#d18c31" d="M 169.5,163.5 C 174.028,166.932 179.028,169.599 184.5,171.5C 185.107,171.376 185.44,171.043 185.5,170.5C 185.833,170.5 186.167,170.5 186.5,170.5C 187.919,171.451 189.585,171.784 191.5,171.5C 194.187,171.664 196.854,171.497 199.5,171C 202.279,169.278 205.279,168.111 208.5,167.5C 208.5,168.833 208.5,170.167 208.5,171.5C 204.71,177.896 199.043,181.563 191.5,182.5C 191.5,181.5 191.5,180.5 191.5,179.5C 188.927,179.852 186.594,179.352 184.5,178C 186.935,177.925 187.602,177.092 186.5,175.5C 187.239,175.631 187.906,175.464 188.5,175C 185.289,173.228 181.955,171.728 178.5,170.5C 177.914,170.709 177.414,171.043 177,171.5C 175.829,170.107 174.329,169.273 172.5,169C 171.837,167.482 170.837,166.315 169.5,165.5C 169.5,165.167 169.5,164.833 169.5,164.5C 169.5,164.167 169.5,163.833 169.5,163.5 Z"/></g>
<g><path style="opacity:1" fill="#f6a63a" d="M 169.5,165.5 C 170.837,166.315 171.837,167.482 172.5,169C 174.329,169.273 175.829,170.107 177,171.5C 177.414,171.043 177.914,170.709 178.5,170.5C 181.955,171.728 185.289,173.228 188.5,175C 187.906,175.464 187.239,175.631 186.5,175.5C 185.2,174.892 183.867,174.225 182.5,173.5C 180.944,174.547 179.277,175.214 177.5,175.5C 177.5,176.5 177.5,177.5 177.5,178.5C 174.012,178.295 170.679,177.461 167.5,176C 162.845,175.501 158.179,175.334 153.5,175.5C 153.629,177.216 153.962,178.883 154.5,180.5C 153.833,180.5 153.167,180.5 152.5,180.5C 151.833,180.5 151.5,180.167 151.5,179.5C 148.901,172.872 150.568,167.705 156.5,164C 160.71,164.909 165.044,165.409 169.5,165.5 Z"/></g>
<g><path style="opacity:1" fill="#c19555" d="M 122.5,175.5 C 122.833,175.5 123.167,175.5 123.5,175.5C 124.156,176.278 124.989,176.944 126,177.5C 130.111,176.596 134.278,176.263 138.5,176.5C 138.5,176.833 138.5,177.167 138.5,177.5C 135.813,177.336 133.146,177.503 130.5,178C 128.235,179.118 125.901,179.951 123.5,180.5C 122.962,178.883 122.629,177.216 122.5,175.5 Z"/></g>
<g><path style="opacity:1" fill="#f7a83a" d="M 244.5,165.5 C 245.833,165.5 246.5,166.167 246.5,167.5C 249.049,175.65 247.383,182.65 241.5,188.5C 240.914,188.291 240.414,187.957 240,187.5C 239.51,188.793 239.343,190.127 239.5,191.5C 236.128,192.401 232.795,192.401 229.5,191.5C 233.156,187.521 236.322,183.188 239,178.5C 239.749,177.365 239.583,176.365 238.5,175.5C 235.354,177.812 232.354,180.312 229.5,183C 228.241,183.982 226.908,184.315 225.5,184C 226.376,182.414 227.376,180.914 228.5,179.5C 228.167,179.167 227.833,178.833 227.5,178.5C 219.688,183.814 212.021,189.314 204.5,195C 182.823,204.688 161.823,203.355 141.5,191C 138.438,190.259 135.438,190.425 132.5,191.5C 131.548,193.045 131.215,194.712 131.5,196.5C 130.167,196.5 128.833,196.5 127.5,196.5C 126.479,191.294 128.145,187.461 132.5,185C 137.545,184.449 142.545,184.782 147.5,186C 152.379,188.071 157.379,189.737 162.5,191C 173.966,192.124 185.3,191.457 196.5,189C 201.098,186.73 205.431,184.063 209.5,181C 212.889,177.031 215.889,172.864 218.5,168.5C 221.881,168.46 225.214,168.793 228.5,169.5C 229.919,170.451 231.585,170.784 233.5,170.5C 235.369,168.365 236.036,165.698 235.5,162.5C 238.655,162.977 241.655,163.977 244.5,165.5 Z"/></g>
<g><path style="opacity:1" fill="#282214" d="M 122.5,163.5 C 121.274,167.633 121.274,171.633 122.5,175.5C 122.629,177.216 122.962,178.883 123.5,180.5C 122.518,179.859 121.518,179.193 120.5,178.5C 120.167,179.167 119.833,179.833 119.5,180.5C 120.245,183.315 120.912,186.149 121.5,189C 121.156,190.365 120.489,191.532 119.5,192.5C 121.105,195.314 122.105,198.314 122.5,201.5C 120.689,199.615 119.522,197.281 119,194.5C 118.785,191.144 118.785,187.811 119,184.5C 118.333,183.167 117.667,181.833 117,180.5C 115.961,181.71 114.794,182.71 113.5,183.5C 113.5,182.167 113.5,180.833 113.5,179.5C 115.167,179.5 116.833,179.5 118.5,179.5C 119.826,174.62 120.66,169.62 121,164.5C 121.383,163.944 121.883,163.611 122.5,163.5 Z"/></g>
<g><path style="opacity:1" fill="#1e1b19" d="M 255.5,143.5 C 260.987,145.571 266.654,147.071 272.5,148C 276.197,151.607 280.031,155.107 284,158.5C 286.845,163.075 288.178,168.075 288,173.5C 295.7,180.063 298.7,188.397 297,198.5C 300.48,204.676 300.147,210.676 296,216.5C 295.333,224.167 295.333,231.833 296,239.5C 296.308,240.308 296.808,240.975 297.5,241.5C 299.485,239.543 300.985,237.21 302,234.5C 308.403,218.079 310.903,201.079 309.5,183.5C 310.33,193.325 310.83,203.325 311,213.5C 311.667,214.833 312.333,214.833 313,213.5C 314.348,206.239 314.848,198.906 314.5,191.5C 315.5,191.5 316.5,191.5 317.5,191.5C 317.57,186.716 318.237,182.049 319.5,177.5C 321.857,177.337 324.19,177.503 326.5,178C 327.973,178.71 328.64,179.876 328.5,181.5C 330.806,181.993 333.139,182.326 335.5,182.5C 335.5,183.5 335.5,184.5 335.5,185.5C 330.167,184.833 324.833,184.167 319.5,183.5C 319.5,184.5 319.5,185.5 319.5,186.5C 321.467,186.739 323.301,186.406 325,185.5C 325.5,186 326,186.5 326.5,187C 324.551,188.835 322.217,190.001 319.5,190.5C 320.585,191.784 321.252,193.284 321.5,195C 320.216,199.184 320.216,203.351 321.5,207.5C 320.167,207.5 318.833,207.5 317.5,207.5C 316.572,212.799 315.572,218.132 314.5,223.5C 313.167,223.5 311.833,223.5 310.5,223.5C 310.662,221.473 310.495,219.473 310,217.5C 307.04,219.99 306.873,222.823 309.5,226C 309.456,228.817 308.29,230.984 306,232.5C 305.545,236.398 307.211,239.065 311,240.5C 311.402,241.872 311.902,243.205 312.5,244.5C 317.372,246.33 318.705,249.663 316.5,254.5C 315.667,254.833 314.833,255.167 314,255.5C 312.624,255.316 311.791,254.649 311.5,253.5C 312.5,253.5 313.5,253.5 314.5,253.5C 314.5,252.167 314.5,250.833 314.5,249.5C 313.5,249.5 312.5,249.5 311.5,249.5C 311.5,250.5 311.5,251.5 311.5,252.5C 309.8,252.374 308.3,251.707 307,250.5C 306.5,250.833 306,251.167 305.5,251.5C 303.898,254.237 303.064,257.237 303,260.5C 300.444,259.781 299.277,258.114 299.5,255.5C 302.613,255.935 303.279,254.935 301.5,252.5C 301.631,248.741 303.297,247.408 306.5,248.5C 309.131,246.995 308.797,246.329 305.5,246.5C 307.008,243.86 306.674,241.527 304.5,239.5C 303.749,240.376 303.249,241.376 303,242.5C 302.282,241.549 301.449,241.383 300.5,242C 300.018,255.767 298.518,255.934 296,242.5C 295.667,242.833 295.333,243.167 295,243.5C 294.859,249.014 293.859,254.348 292,259.5C 288.973,261.214 286.139,263.214 283.5,265.5C 284.32,267.111 285.654,267.778 287.5,267.5C 287.5,268.833 287.5,270.167 287.5,271.5C 285.336,270.522 283.17,269.522 281,268.5C 278.79,269.022 276.623,269.688 274.5,270.5C 273.833,270.167 273.167,269.833 272.5,269.5C 273.831,268.408 274.664,267.074 275,265.5C 275.333,265.833 275.667,266.167 276,266.5C 276.483,265.552 276.649,264.552 276.5,263.5C 274.833,263.5 273.167,263.5 271.5,263.5C 273.607,262.532 275.941,262.198 278.5,262.5C 283.263,263.035 286.929,261.368 289.5,257.5C 290.495,244.677 290.829,231.677 290.5,218.5C 293.139,215.232 294.639,211.566 295,207.5C 294.283,208.044 293.783,208.711 293.5,209.5C 292.532,207.393 292.198,205.059 292.5,202.5C 292.821,196.974 292.488,191.64 291.5,186.5C 290.949,183.733 289.616,181.4 287.5,179.5C 286.247,184.897 284.247,189.897 281.5,194.5C 280.005,194.585 279.005,193.919 278.5,192.5C 279.946,190.382 280.613,188.049 280.5,185.5C 280.5,184.167 280.5,182.833 280.5,181.5C 281.973,178.983 282.64,176.15 282.5,173C 281.989,158.972 274.989,153.472 261.5,156.5C 259.302,156.591 258.969,155.925 260.5,154.5C 261.23,153.288 262.23,152.288 263.5,151.5C 261.891,150.112 260.058,149.112 258,148.5C 251.881,147.562 245.714,147.228 239.5,147.5C 237.801,147.66 236.134,147.494 234.5,147C 241.126,144.025 248.126,142.859 255.5,143.5 Z"/></g>
<g><path style="opacity:1" fill="#151b24" d="M 252.5,185.5 C 251.778,185.918 251.278,186.584 251,187.5C 249.954,186.228 249.454,184.728 249.5,183C 249.912,178.79 250.579,174.624 251.5,170.5C 252.494,175.456 252.827,180.456 252.5,185.5 Z"/></g>
<g><path style="opacity:1" fill="#c4b099" d="M 320.5,178.5 C 321.5,178.5 322.5,178.5 323.5,178.5C 323.5,179.833 323.5,181.167 323.5,182.5C 322.5,182.5 321.5,182.5 320.5,182.5C 320.5,181.167 320.5,179.833 320.5,178.5 Z"/></g>
<g><path style="opacity:1" fill="#da8f29" d="M 186.5,175.5 C 187.602,177.092 186.935,177.925 184.5,178C 186.594,179.352 188.927,179.852 191.5,179.5C 191.5,180.5 191.5,181.5 191.5,182.5C 191.167,182.5 190.833,182.5 190.5,182.5C 178.318,184.291 166.318,183.624 154.5,180.5C 153.962,178.883 153.629,177.216 153.5,175.5C 158.179,175.334 162.845,175.501 167.5,176C 170.679,177.461 174.012,178.295 177.5,178.5C 177.5,177.5 177.5,176.5 177.5,175.5C 179.277,175.214 180.944,174.547 182.5,173.5C 183.867,174.225 185.2,174.892 186.5,175.5 Z"/></g>
<g><path style="opacity:1" fill="#af7c37" d="M 152.5,180.5 C 153.167,180.5 153.833,180.5 154.5,180.5C 166.318,183.624 178.318,184.291 190.5,182.5C 177.617,186.705 164.951,186.039 152.5,180.5 Z"/></g>
<g><path style="opacity:1" fill="#eccd8c" d="M 218.5,168.5 C 215.889,172.864 212.889,177.031 209.5,181C 205.431,184.063 201.098,186.73 196.5,189C 185.3,191.457 173.966,192.124 162.5,191C 157.379,189.737 152.379,188.071 147.5,186C 142.545,184.782 137.545,184.449 132.5,185C 128.145,187.461 126.479,191.294 127.5,196.5C 126.778,196.082 126.278,195.416 126,194.5C 124.927,184.577 129.427,180.411 139.5,182C 147.5,184.333 155.5,186.667 163.5,189C 171.167,189.667 178.833,189.667 186.5,189C 200.115,187.035 210.115,180.035 216.5,168C 217.437,167.308 218.103,167.475 218.5,168.5 Z"/></g>
<g><path style="opacity:1" fill="#dfa554" d="M 246.5,167.5 C 247.966,168.347 248.8,169.68 249,171.5C 250.133,179.561 247.633,186.227 241.5,191.5C 240.833,191.5 240.167,191.5 239.5,191.5C 239.343,190.127 239.51,188.793 240,187.5C 240.414,187.957 240.914,188.291 241.5,188.5C 247.383,182.65 249.049,175.65 246.5,167.5 Z"/></g>
<g><path style="opacity:1" fill="#241e11" d="M 61.5,181.5 C 59.6885,183.385 58.5218,185.719 58,188.5C 55.9481,189.793 53.7814,190.793 51.5,191.5C 51.5,190.167 51.5,188.833 51.5,187.5C 53.4672,187.739 55.3005,187.406 57,186.5C 58.3368,182.974 58.8368,179.308 58.5,175.5C 59.5,175.5 60.5,175.5 61.5,175.5C 61.5,177.5 61.5,179.5 61.5,181.5 Z"/></g>
<g><path style="opacity:1" fill="#161820" d="M 123.5,180.5 C 124.794,184.655 124.794,188.822 123.5,193C 124.018,195.576 125.351,197.41 127.5,198.5C 128.167,198.833 128.833,199.167 129.5,199.5C 129.539,201.359 128.706,202.692 127,203.5C 125.67,202.418 124.17,201.751 122.5,201.5C 122.105,198.314 121.105,195.314 119.5,192.5C 120.489,191.532 121.156,190.365 121.5,189C 120.912,186.149 120.245,183.315 119.5,180.5C 119.833,179.833 120.167,179.167 120.5,178.5C 121.518,179.193 122.518,179.859 123.5,180.5 Z"/></g>
<g><path style="opacity:1" fill="#d9a14c" d="M 277.5,165.5 C 278.496,165.414 279.329,165.748 280,166.5C 280.499,171.489 280.666,176.489 280.5,181.5C 280.5,182.833 280.5,184.167 280.5,185.5C 276.173,195.827 268.84,203.16 258.5,207.5C 263.715,203.796 268.548,199.462 273,194.5C 278.174,185.372 279.674,175.705 277.5,165.5 Z"/></g>
<g><path style="opacity:1" fill="#e9cf90" d="M 253.5,183.5 C 254.338,183.842 254.672,184.508 254.5,185.5C 253.248,191.49 249.915,195.99 244.5,199C 238.022,200.886 231.522,202.719 225,204.5C 222.246,207.879 218.913,210.545 215,212.5C 214.626,214.491 213.793,216.158 212.5,217.5C 212.298,215.011 212.798,212.677 214,210.5C 221.709,203.231 230.876,199.064 241.5,198C 243.584,197.303 245.251,196.136 246.5,194.5C 250.041,192.609 252.041,189.609 252.5,185.5C 253.338,185.158 253.672,184.492 253.5,183.5 Z"/></g>
<g><path style="opacity:1" fill="#f6d393" d="M 122.5,201.5 C 123.11,202.391 123.443,203.391 123.5,204.5C 122.167,205.833 120.833,207.167 119.5,208.5C 116.353,205.532 113.686,202.198 111.5,198.5C 110.378,193.303 111.045,188.303 113.5,183.5C 114.794,182.71 115.961,181.71 117,180.5C 117.667,181.833 118.333,183.167 119,184.5C 118.785,187.811 118.785,191.144 119,194.5C 119.522,197.281 120.689,199.615 122.5,201.5 Z"/></g>
<g><path style="opacity:1" fill="#1f1e19" d="M 342.5,207.5 C 343.739,206.788 344.239,205.788 344,204.5C 342.013,203.782 340.179,202.782 338.5,201.5C 337.806,198.912 336.64,196.579 335,194.5C 333.744,196.754 332.577,199.088 331.5,201.5C 330.398,202.176 329.398,202.842 328.5,203.5C 327.391,203.557 326.391,203.89 325.5,204.5C 325.058,200.064 325.058,195.731 325.5,191.5C 326.5,191.5 327.5,191.5 328.5,191.5C 327.987,194.449 327.987,197.282 328.5,200C 329.449,200.617 330.282,200.451 331,199.5C 331.735,197.129 332.568,194.795 333.5,192.5C 331.726,191.813 330.059,190.98 328.5,190C 331.453,189.108 334.119,189.608 336.5,191.5C 337.759,194.707 339.092,197.874 340.5,201C 342.134,201.494 343.801,201.66 345.5,201.5C 345.833,203.5 346.167,205.5 346.5,207.5C 345.167,207.5 343.833,207.5 342.5,207.5 Z"/></g>
<g><path style="opacity:1" fill="#ecca89" d="M 61.5,181.5 C 62.4231,183.767 63.2564,186.1 64,188.5C 66.3216,190.112 68.8216,191.445 71.5,192.5C 69.2065,194.23 66.7065,195.563 64,196.5C 63.1965,199.244 62.1965,201.911 61,204.5C 59.5584,201.95 58.3917,199.284 57.5,196.5C 55.5101,195.502 53.5101,194.502 51.5,193.5C 50.2267,192.743 50.2267,192.077 51.5,191.5C 53.7814,190.793 55.9481,189.793 58,188.5C 58.5218,185.719 59.6885,183.385 61.5,181.5 Z"/></g>
<g><path style="opacity:1" fill="#1a1a21" d="M 278.5,198.5 C 277.876,200.754 276.543,202.421 274.5,203.5C 271.41,205.07 268.41,206.903 265.5,209C 264.056,209.781 262.723,209.614 261.5,208.5C 267.077,205.591 271.744,201.591 275.5,196.5C 276.325,195.614 277.325,195.281 278.5,195.5C 278.5,196.5 278.5,197.5 278.5,198.5 Z"/></g>
<g><path style="opacity:1" fill="#1b1d17" d="M 98.5,163.5 C 97.6483,168.892 96.4817,174.225 95,179.5C 94.5002,188.827 94.3335,198.161 94.5,207.5C 92.2978,211.439 89.9645,211.439 87.5,207.5C 86.5052,202.208 86.1718,196.875 86.5,191.5C 87.5,191.5 88.5,191.5 89.5,191.5C 89.5,196.833 89.5,202.167 89.5,207.5C 90.5,207.5 91.5,207.5 92.5,207.5C 92.7269,201.298 92.3936,195.131 91.5,189C 92.029,185.459 92.6957,181.959 93.5,178.5C 90.3698,175.299 91.0365,173.632 95.5,173.5C 95.0255,169.584 96.0255,166.251 98.5,163.5 Z"/></g>
<g><path style="opacity:1" fill="#1f1c0f" d="M 129.5,199.5 C 131.537,200.846 133.537,202.18 135.5,203.5C 134.07,203.579 132.736,203.246 131.5,202.5C 130.614,203.325 130.281,204.325 130.5,205.5C 129.209,205.263 128.209,205.596 127.5,206.5C 126.391,206.443 125.391,206.11 124.5,205.5C 124.5,204.833 124.167,204.5 123.5,204.5C 123.443,203.391 123.11,202.391 122.5,201.5C 124.17,201.751 125.67,202.418 127,203.5C 128.706,202.692 129.539,201.359 129.5,199.5 Z"/></g>
<g><path style="opacity:1" fill="#d58f2a" d="M 239.5,191.5 C 232.465,193.522 225.465,196.022 218.5,199C 216.004,200.666 213.671,202.5 211.5,204.5C 210.167,204.5 208.833,204.5 207.5,204.5C 207.5,205.5 207.5,206.5 207.5,207.5C 202.156,207.334 196.823,207.501 191.5,208C 193.291,208.415 194.624,209.415 195.5,211C 193.2,211.658 190.867,212.158 188.5,212.5C 184.325,210.936 179.992,210.269 175.5,210.5C 175.5,209.5 175.5,208.5 175.5,207.5C 170.167,207.5 164.833,207.5 159.5,207.5C 159.5,206.5 159.5,205.5 159.5,204.5C 160.552,204.649 161.552,204.483 162.5,204C 161.271,203.219 159.938,202.719 158.5,202.5C 156.588,203.851 154.422,204.518 152,204.5C 147.863,203.763 143.697,203.429 139.5,203.5C 138.833,203.5 138.167,203.5 137.5,203.5C 136.833,203.5 136.167,203.5 135.5,203.5C 133.537,202.18 131.537,200.846 129.5,199.5C 128.833,199.167 128.167,198.833 127.5,198.5C 127.5,197.833 127.5,197.167 127.5,196.5C 128.833,196.5 130.167,196.5 131.5,196.5C 131.215,194.712 131.548,193.045 132.5,191.5C 135.438,190.425 138.438,190.259 141.5,191C 161.823,203.355 182.823,204.688 204.5,195C 212.021,189.314 219.688,183.814 227.5,178.5C 227.833,178.833 228.167,179.167 228.5,179.5C 227.376,180.914 226.376,182.414 225.5,184C 226.908,184.315 228.241,183.982 229.5,183C 232.354,180.312 235.354,177.812 238.5,175.5C 239.583,176.365 239.749,177.365 239,178.5C 236.322,183.188 233.156,187.521 229.5,191.5C 232.795,192.401 236.128,192.401 239.5,191.5 Z"/></g>
<g><path style="opacity:1" fill="#2f1c0e" d="M 137.5,203.5 C 138.167,203.5 138.833,203.5 139.5,203.5C 142.433,204.983 145.433,206.317 148.5,207.5C 143.906,208.343 140.239,207.009 137.5,203.5 Z"/></g>
<g><path style="opacity:1" fill="#eeca85" d="M 329.5,207.5 C 328.07,207.579 326.736,207.246 325.5,206.5C 324.227,205.743 324.227,205.077 325.5,204.5C 326.391,203.89 327.391,203.557 328.5,203.5C 329.873,203.657 331.207,203.49 332.5,203C 333.147,201.391 333.98,199.891 335,198.5C 338.317,202.555 338.317,206.555 335,210.5C 333.814,208.323 331.981,207.323 329.5,207.5 Z"/></g>
<g><path style="opacity:1" fill="#181924" d="M 135.5,203.5 C 136.167,203.5 136.833,203.5 137.5,203.5C 140.239,207.009 143.906,208.343 148.5,207.5C 148.833,207.5 149.167,207.5 149.5,207.5C 149.389,208.117 149.056,208.617 148.5,209C 143.504,209.611 138.504,210.111 133.5,210.5C 131.147,209.66 129.147,208.326 127.5,206.5C 128.209,205.596 129.209,205.263 130.5,205.5C 130.281,204.325 130.614,203.325 131.5,202.5C 132.736,203.246 134.07,203.579 135.5,203.5 Z"/></g>
<g><path style="opacity:1" fill="#c58c36" d="M 211.5,204.5 C 209.469,205.539 208.136,207.205 207.5,209.5C 202.905,209.719 198.571,210.885 194.5,213C 190.113,213.706 185.78,213.54 181.5,212.5C 179.139,212.326 176.806,211.993 174.5,211.5C 169.911,209.125 164.911,208.125 159.5,208.5C 156.14,208.384 152.807,208.051 149.5,207.5C 149.167,207.5 148.833,207.5 148.5,207.5C 145.433,206.317 142.433,204.983 139.5,203.5C 143.697,203.429 147.863,203.763 152,204.5C 154.422,204.518 156.588,203.851 158.5,202.5C 159.938,202.719 161.271,203.219 162.5,204C 161.552,204.483 160.552,204.649 159.5,204.5C 159.5,205.5 159.5,206.5 159.5,207.5C 164.833,207.5 170.167,207.5 175.5,207.5C 175.5,208.5 175.5,209.5 175.5,210.5C 179.992,210.269 184.325,210.936 188.5,212.5C 190.867,212.158 193.2,211.658 195.5,211C 194.624,209.415 193.291,208.415 191.5,208C 196.823,207.501 202.156,207.334 207.5,207.5C 207.5,206.5 207.5,205.5 207.5,204.5C 208.833,204.5 210.167,204.5 211.5,204.5 Z"/></g>
<g><path style="opacity:1" fill="#f7d68d" d="M 291.5,186.5 C 292.006,191.157 291.173,195.49 289,199.5C 279.912,211.797 268.078,220.297 253.5,225C 241.994,227.697 230.661,231.03 219.5,235C 207.52,242.302 195.52,249.635 183.5,257C 182.552,257.483 181.552,257.649 180.5,257.5C 177.985,256.737 175.985,255.237 174.5,253C 173.552,252.517 172.552,252.351 171.5,252.5C 172.01,255.388 171.344,257.721 169.5,259.5C 170.369,257.283 170.702,254.95 170.5,252.5C 171.622,251.053 173.122,250.053 175,249.5C 176.413,251.414 178.247,252.747 180.5,253.5C 194.309,239.932 210.309,229.932 228.5,223.5C 228.833,223.5 229.167,223.5 229.5,223.5C 236.148,222.005 242.815,220.505 249.5,219C 251.491,218.626 253.158,217.793 254.5,216.5C 254.833,216.5 255.167,216.5 255.5,216.5C 262.739,213.389 269.072,209.056 274.5,203.5C 276.543,202.421 277.876,200.754 278.5,198.5C 279.974,197.564 280.974,196.23 281.5,194.5C 284.247,189.897 286.247,184.897 287.5,179.5C 289.616,181.4 290.949,183.733 291.5,186.5 Z"/></g>
<g><path style="opacity:1" fill="#d38e2d" d="M 273.5,159.5 C 275.192,161.205 276.525,163.205 277.5,165.5C 279.674,175.705 278.174,185.372 273,194.5C 268.548,199.462 263.715,203.796 258.5,207.5C 255.648,209.076 252.648,210.576 249.5,212C 239.028,214.192 228.695,216.692 218.5,219.5C 218.967,216.703 220.633,215.369 223.5,215.5C 223.5,214.167 223.5,212.833 223.5,211.5C 230.857,210.195 238.191,208.695 245.5,207C 262.733,199.286 270.4,185.786 268.5,166.5C 269.966,168.821 271.799,170.821 274,172.5C 274.534,168.141 274.368,163.808 273.5,159.5 Z"/></g>
<g><path style="opacity:1" fill="#281c12" d="M 280.5,185.5 C 280.613,188.049 279.946,190.382 278.5,192.5C 279.005,193.919 280.005,194.585 281.5,194.5C 280.974,196.23 279.974,197.564 278.5,198.5C 278.5,197.5 278.5,196.5 278.5,195.5C 277.325,195.281 276.325,195.614 275.5,196.5C 271.744,201.591 267.077,205.591 261.5,208.5C 262.723,209.614 264.056,209.781 265.5,209C 268.41,206.903 271.41,205.07 274.5,203.5C 269.072,209.056 262.739,213.389 255.5,216.5C 256.252,214.9 257.252,213.4 258.5,212C 249.156,214.604 239.489,216.604 229.5,218C 228.096,219.337 226.596,220.503 225,221.5C 224,220.833 223,220.167 222,219.5C 220.862,219.989 219.695,220.322 218.5,220.5C 218.5,220.167 218.5,219.833 218.5,219.5C 228.695,216.692 239.028,214.192 249.5,212C 252.648,210.576 255.648,209.076 258.5,207.5C 268.84,203.16 276.173,195.827 280.5,185.5 Z"/></g>
<g><path style="opacity:1" fill="#e2c291" d="M 342.5,207.5 C 340.61,207.297 339.11,207.963 338,209.5C 337.275,211.949 336.275,214.283 335,216.5C 333.793,212.942 331.96,209.942 329.5,207.5C 331.981,207.323 333.814,208.323 335,210.5C 338.317,206.555 338.317,202.555 335,198.5C 333.98,199.891 333.147,201.391 332.5,203C 331.207,203.49 329.873,203.657 328.5,203.5C 329.398,202.842 330.398,202.176 331.5,201.5C 332.577,199.088 333.744,196.754 335,194.5C 336.64,196.579 337.806,198.912 338.5,201.5C 340.179,202.782 342.013,203.782 344,204.5C 344.239,205.788 343.739,206.788 342.5,207.5 Z"/></g>
<g><path style="opacity:1" fill="#d6c597" d="M 78.5,208.5 C 81.9103,208.384 83.2436,210.05 82.5,213.5C 80.8333,213.5 79.1667,213.5 77.5,213.5C 77.366,211.708 77.6993,210.042 78.5,208.5 Z"/></g>
<g><path style="opacity:1" fill="#1d1b1a" d="M 246.5,194.5 C 245.251,196.136 243.584,197.303 241.5,198C 230.876,199.064 221.709,203.231 214,210.5C 212.798,212.677 212.298,215.011 212.5,217.5C 212.5,218.833 211.833,219.5 210.5,219.5C 209.359,217.757 207.692,216.757 205.5,216.5C 200.612,217.613 195.946,219.28 191.5,221.5C 186.337,219.817 181.004,219.15 175.5,219.5C 166.797,218.66 158.13,217.493 149.5,216C 143.754,215.03 138.421,213.197 133.5,210.5C 138.504,210.111 143.504,209.611 148.5,209C 149.056,208.617 149.389,208.117 149.5,207.5C 152.807,208.051 156.14,208.384 159.5,208.5C 164.273,210.022 169.273,211.022 174.5,211.5C 176.806,211.993 179.139,212.326 181.5,212.5C 183.571,213.809 186.071,214.475 189,214.5C 195.589,214.106 201.756,212.439 207.5,209.5C 208.136,207.205 209.469,205.539 211.5,204.5C 213.671,202.5 216.004,200.666 218.5,199C 225.465,196.022 232.465,193.522 239.5,191.5C 240.167,191.5 240.833,191.5 241.5,191.5C 243.628,190.043 245.962,189.043 248.5,188.5C 248.296,190.685 247.63,192.685 246.5,194.5 Z"/></g>
<g><path style="opacity:1" fill="#33210b" d="M 207.5,209.5 C 201.756,212.439 195.589,214.106 189,214.5C 186.071,214.475 183.571,213.809 181.5,212.5C 185.78,213.54 190.113,213.706 194.5,213C 198.571,210.885 202.905,209.719 207.5,209.5 Z"/></g>
<g><path style="opacity:1" fill="#966f35" d="M 159.5,208.5 C 164.911,208.125 169.911,209.125 174.5,211.5C 169.273,211.022 164.273,210.022 159.5,208.5 Z"/></g>
<g><path style="opacity:1" fill="#44220c" d="M 292.5,202.5 C 292.198,205.059 292.532,207.393 293.5,209.5C 291.549,212.786 289.215,215.786 286.5,218.5C 283.01,221.411 279.344,224.078 275.5,226.5C 273.809,227.864 272.142,229.197 270.5,230.5C 265.15,232.563 259.817,234.729 254.5,237C 240.695,240.044 227.695,245.044 215.5,252C 210.655,253.869 205.655,255.035 200.5,255.5C 200.062,255.565 199.728,255.399 199.5,255C 204.219,253.879 208.886,252.546 213.5,251C 221.907,246.237 230.574,242.07 239.5,238.5C 248.316,236.132 256.983,233.466 265.5,230.5C 272.896,225.948 279.896,220.781 286.5,215C 287.781,212.573 288.781,210.073 289.5,207.5C 291.028,206.198 292.028,204.531 292.5,202.5 Z"/></g>
<g><path style="opacity:1" fill="#edcd98" d="M 124.5,205.5 C 125.391,206.11 126.391,206.443 127.5,206.5C 129.147,208.326 131.147,209.66 133.5,210.5C 138.421,213.197 143.754,215.03 149.5,216C 158.13,217.493 166.797,218.66 175.5,219.5C 175.5,219.833 175.5,220.167 175.5,220.5C 160.6,220.384 146.266,217.718 132.5,212.5C 131.479,216.152 129.812,216.486 127.5,213.5C 128.853,212.476 129.52,211.143 129.5,209.5C 126.454,209.817 124.787,208.484 124.5,205.5 Z"/></g>
<g><path style="opacity:1" fill="#c1a46d" d="M 290.5,218.5 C 290.167,218.5 289.833,218.5 289.5,218.5C 288.5,218.5 287.5,218.5 286.5,218.5C 289.215,215.786 291.549,212.786 293.5,209.5C 293.783,208.711 294.283,208.044 295,207.5C 294.639,211.566 293.139,215.232 290.5,218.5 Z"/></g>
<g><path style="opacity:1" fill="#b59d73" d="M 113.5,215.5 C 114.5,216.833 115.5,218.167 116.5,219.5C 115.508,219.328 114.842,219.662 114.5,220.5C 112.564,217.544 110.564,214.544 108.5,211.5C 108.343,210.127 108.51,208.793 109,207.5C 110.274,210.391 111.774,213.058 113.5,215.5 Z"/></g>
<g><path style="opacity:1" fill="#bd741f" d="M 111.5,198.5 C 113.686,202.198 116.353,205.532 119.5,208.5C 123.511,213.334 128.511,216.834 134.5,219C 147.87,223.267 161.536,226.1 175.5,227.5C 176.263,228.268 177.263,228.768 178.5,229C 177.219,230.409 176.219,231.909 175.5,233.5C 175.03,232.307 174.03,231.64 172.5,231.5C 159.289,229.543 146.289,226.709 133.5,223C 125.621,220.075 119.287,215.241 114.5,208.5C 113.675,207.614 112.675,207.281 111.5,207.5C 111.5,204.5 111.5,201.5 111.5,198.5 Z"/></g>
<g><path style="opacity:1" fill="#fad184" d="M 123.5,204.5 C 124.167,204.5 124.5,204.833 124.5,205.5C 124.787,208.484 126.454,209.817 129.5,209.5C 129.52,211.143 128.853,212.476 127.5,213.5C 129.812,216.486 131.479,216.152 132.5,212.5C 146.266,217.718 160.6,220.384 175.5,220.5C 179.273,220.263 182.94,220.763 186.5,222C 184.266,224.063 182.266,226.229 180.5,228.5C 178.958,227.699 177.292,227.366 175.5,227.5C 161.536,226.1 147.87,223.267 134.5,219C 128.511,216.834 123.511,213.334 119.5,208.5C 120.833,207.167 122.167,205.833 123.5,204.5 Z"/></g>
<g><path style="opacity:1" fill="#d99e5c" d="M 116.5,219.5 C 119.484,222.326 122.817,224.659 126.5,226.5C 127.167,226.5 127.5,226.833 127.5,227.5C 126.5,227.5 125.5,227.5 124.5,227.5C 120.947,225.965 117.614,223.965 114.5,221.5C 114.5,221.167 114.5,220.833 114.5,220.5C 114.842,219.662 115.508,219.328 116.5,219.5 Z"/></g>
<g><path style="opacity:1" fill="#eccd90" d="M 210.5,219.5 C 207.531,218.671 204.531,218.505 201.5,219C 196.478,221.511 191.478,224.011 186.5,226.5C 187.973,224.605 189.64,222.939 191.5,221.5C 195.946,219.28 200.612,217.613 205.5,216.5C 207.692,216.757 209.359,217.757 210.5,219.5 Z"/></g>
<g><path style="opacity:1" fill="#a9510c" d="M 289.5,207.5 C 288.781,210.073 287.781,212.573 286.5,215C 279.896,220.781 272.896,225.948 265.5,230.5C 256.983,233.466 248.316,236.132 239.5,238.5C 230.574,242.07 221.907,246.237 213.5,251C 208.886,252.546 204.219,253.879 199.5,255C 199.728,255.399 200.062,255.565 200.5,255.5C 197.362,257.24 194.362,259.24 191.5,261.5C 189.606,262.048 187.94,263.048 186.5,264.5C 185.335,273.482 185.168,282.482 186,291.5C 188.719,292.444 191.552,292.777 194.5,292.5C 194.5,292.833 194.5,293.167 194.5,293.5C 189.609,294.903 184.609,295.57 179.5,295.5C 179.5,294.167 179.5,292.833 179.5,291.5C 179.5,281.833 179.5,272.167 179.5,262.5C 183.578,261.298 187.578,259.798 191.5,258C 204.004,250.844 216.338,243.511 228.5,236C 243.623,233.514 257.956,228.847 271.5,222C 277.683,217.309 283.683,212.476 289.5,207.5 Z"/></g>
<g><path style="opacity:1" fill="#2c2414" d="M 254.5,216.5 C 253.158,217.793 251.491,218.626 249.5,219C 242.815,220.505 236.148,222.005 229.5,223.5C 229.791,222.351 230.624,221.684 232,221.5C 239.499,219.669 246.999,218.002 254.5,216.5 Z"/></g>
<g><path style="opacity:1" fill="#50280d" d="M 114.5,214.5 C 118.219,215.691 121.219,217.858 123.5,221C 124.793,221.49 126.127,221.657 127.5,221.5C 127.5,222.5 127.5,223.5 127.5,224.5C 126.662,224.842 126.328,225.508 126.5,226.5C 122.817,224.659 119.484,222.326 116.5,219.5C 115.5,218.167 114.5,216.833 113.5,215.5C 113.5,214.833 113.833,214.5 114.5,214.5 Z"/></g>
<g><path style="opacity:1" fill="#342918" d="M 175.5,220.5 C 175.5,220.167 175.5,219.833 175.5,219.5C 181.004,219.15 186.337,219.817 191.5,221.5C 189.64,222.939 187.973,224.605 186.5,226.5C 184.203,228.294 182.037,230.294 180,232.5C 179.805,231.181 179.972,229.847 180.5,228.5C 182.266,226.229 184.266,224.063 186.5,222C 182.94,220.763 179.273,220.263 175.5,220.5 Z"/></g>
<g><path style="opacity:1" fill="#16191f" d="M 255.5,216.5 C 255.167,216.5 254.833,216.5 254.5,216.5C 246.999,218.002 239.499,219.669 232,221.5C 230.624,221.684 229.791,222.351 229.5,223.5C 229.167,223.5 228.833,223.5 228.5,223.5C 223.44,223.597 218.774,224.93 214.5,227.5C 213.833,227.167 213.167,226.833 212.5,226.5C 213.802,224.799 215.469,223.632 217.5,223C 218.252,222.329 218.586,221.496 218.5,220.5C 219.695,220.322 220.862,219.989 222,219.5C 223,220.167 224,220.833 225,221.5C 226.596,220.503 228.096,219.337 229.5,218C 239.489,216.604 249.156,214.604 258.5,212C 257.252,213.4 256.252,214.9 255.5,216.5 Z"/></g>
<g><path style="opacity:1" fill="#e0a85f" d="M 286.5,218.5 C 287.5,218.5 288.5,218.5 289.5,218.5C 289.167,219.167 288.833,219.833 288.5,220.5C 285.482,222.526 282.482,224.526 279.5,226.5C 277.965,227.354 276.632,227.354 275.5,226.5C 279.344,224.078 283.01,221.411 286.5,218.5 Z"/></g>
<g><path style="opacity:1" fill="#6c3206" d="M 111.5,207.5 C 112.675,207.281 113.675,207.614 114.5,208.5C 119.287,215.241 125.621,220.075 133.5,223C 146.289,226.709 159.289,229.543 172.5,231.5C 174.03,231.64 175.03,232.307 175.5,233.5C 175.5,234.5 175.5,235.5 175.5,236.5C 166.548,234.922 157.548,233.589 148.5,232.5C 141.09,230.617 134.09,227.951 127.5,224.5C 127.5,223.5 127.5,222.5 127.5,221.5C 126.127,221.657 124.793,221.49 123.5,221C 121.219,217.858 118.219,215.691 114.5,214.5C 113.242,212.313 112.242,209.98 111.5,207.5 Z"/></g>
<g><path style="opacity:1" fill="#dbc393" d="M 319.5,226.5 C 320.833,226.5 322.167,226.5 323.5,226.5C 323.99,228.948 323.157,230.615 321,231.5C 318.389,230.5 317.889,228.833 319.5,226.5 Z"/></g>
<g><path style="opacity:1" fill="#8a440b" d="M 114.5,221.5 C 117.614,223.965 120.947,225.965 124.5,227.5C 124.5,235.833 124.5,244.167 124.5,252.5C 122.833,252.5 121.167,252.5 119.5,252.5C 117.983,252.489 116.816,251.823 116,250.5C 115.823,246.644 115.323,242.977 114.5,239.5C 114.5,233.5 114.5,227.5 114.5,221.5 Z"/></g>
<g><path style="opacity:1" fill="#5b2a04" d="M 275.5,226.5 C 276.632,227.354 277.965,227.354 279.5,226.5C 279.5,237.833 279.5,249.167 279.5,260.5C 278.662,260.842 278.328,261.508 278.5,262.5C 275.941,262.198 273.607,262.532 271.5,263.5C 271.5,264.5 271.5,265.5 271.5,266.5C 271.167,266.5 270.833,266.5 270.5,266.5C 270.5,255.5 270.5,244.5 270.5,233.5C 271.116,232.202 271.116,231.202 270.5,230.5C 272.142,229.197 273.809,227.864 275.5,226.5 Z"/></g>
<g><path style="opacity:1" fill="#dabe91" d="M 82.5,227.5 C 84.2695,229.278 86.2695,230.945 88.5,232.5C 85.9022,233.68 84.2355,235.68 83.5,238.5C 82.8982,235.121 80.8982,233.288 77.5,233C 78.8905,231.98 80.3905,231.147 82,230.5C 82.4828,229.552 82.6495,228.552 82.5,227.5 Z"/></g>
<g><path style="opacity:1" fill="#542706" d="M 124.5,227.5 C 125.5,227.5 126.5,227.5 127.5,227.5C 128.739,232.594 129.739,237.76 130.5,243C 130.572,246.369 129.572,249.202 127.5,251.5C 125.562,253.163 123.228,253.829 120.5,253.5C 120.167,253.5 119.833,253.5 119.5,253.5C 119.5,253.167 119.5,252.833 119.5,252.5C 121.167,252.5 122.833,252.5 124.5,252.5C 124.5,244.167 124.5,235.833 124.5,227.5 Z"/></g>
<g><path style="opacity:1" fill="#201a17" d="M 218.5,220.5 C 218.586,221.496 218.252,222.329 217.5,223C 215.469,223.632 213.802,224.799 212.5,226.5C 213.167,226.833 213.833,227.167 214.5,227.5C 218.774,224.93 223.44,223.597 228.5,223.5C 210.309,229.932 194.309,239.932 180.5,253.5C 178.247,252.747 176.413,251.414 175,249.5C 173.122,250.053 171.622,251.053 170.5,252.5C 169.861,251.903 169.528,251.07 169.5,250C 170.82,246.655 171.82,243.155 172.5,239.5C 173.004,242.342 174.671,243.675 177.5,243.5C 178.738,244.412 180.072,244.579 181.5,244C 192.231,233.635 204.565,225.802 218.5,220.5 Z"/></g>
<g><path style="opacity:1" fill="#b25c0c" d="M 288.5,220.5 C 289.404,221.209 289.737,222.209 289.5,223.5C 289.158,234.372 288.158,245.039 286.5,255.5C 287.58,245.829 287.58,236.162 286.5,226.5C 285.914,226.709 285.414,227.043 285,227.5C 283.938,233.102 283.438,238.768 283.5,244.5C 283.508,249.222 284.175,253.555 285.5,257.5C 285.586,258.496 285.252,259.329 284.5,260C 282.866,260.494 281.199,260.66 279.5,260.5C 279.5,249.167 279.5,237.833 279.5,226.5C 282.482,224.526 285.482,222.526 288.5,220.5 Z"/></g>
<g><path style="opacity:1" fill="#d49946" d="M 137.5,231.5 C 148.308,234.618 159.308,236.951 170.5,238.5C 170.5,239.833 170.5,241.167 170.5,242.5C 165.414,242.374 160.414,241.707 155.5,240.5C 153.637,238.295 151.303,236.961 148.5,236.5C 143.543,236.734 138.877,235.734 134.5,233.5C 133.224,232.614 133.224,231.614 134.5,230.5C 135.417,231.127 136.417,231.461 137.5,231.5 Z"/></g>
<g><path style="opacity:1" fill="#b05c07" d="M 118.5,226.5 C 119.811,232.704 119.811,239.038 118.5,245.5C 118.846,246.696 119.346,246.696 120,245.5C 120.494,247.134 120.66,248.801 120.5,250.5C 119.5,250.5 118.5,250.5 117.5,250.5C 115.911,242.258 116.244,234.258 118.5,226.5 Z"/></g>
<g><path style="opacity:1" fill="#452005" d="M 127.5,227.5 C 131.205,228.35 134.539,229.684 137.5,231.5C 136.417,231.461 135.417,231.127 134.5,230.5C 133.224,231.614 133.224,232.614 134.5,233.5C 134.5,239.833 134.5,246.167 134.5,252.5C 132.283,251.631 129.95,251.298 127.5,251.5C 129.572,249.202 130.572,246.369 130.5,243C 129.739,237.76 128.739,232.594 127.5,227.5 Z"/></g>
<g><path style="opacity:1" fill="#b85e0d" d="M 266.5,235.5 C 268.559,245.343 269.059,255.343 268,265.5C 267.333,266.833 266.667,268.167 266,269.5C 265.617,268.944 265.117,268.611 264.5,268.5C 264.279,269.735 263.612,270.735 262.5,271.5C 259.966,272.777 257.466,272.777 255,271.5C 253.429,261.324 253.262,251.324 254.5,241.5C 253.757,240.818 253.091,240.151 252.5,239.5C 257.332,238.779 261.998,237.445 266.5,235.5 Z"/></g>
<g><path style="opacity:1" fill="#6d3504" d="M 146.5,238.5 C 148.98,244.71 148.98,251.044 146.5,257.5C 143.813,257.664 141.146,257.497 138.5,257C 137.944,256.617 137.611,256.117 137.5,255.5C 142.305,256.957 143.972,256.957 142.5,255.5C 142.5,249.833 142.5,244.167 142.5,238.5C 143.833,238.5 145.167,238.5 146.5,238.5 Z"/></g>
<g><path style="opacity:1" fill="#23181e" d="M 108.5,211.5 C 110.564,214.544 112.564,217.544 114.5,220.5C 114.5,220.833 114.5,221.167 114.5,221.5C 114.5,227.5 114.5,233.5 114.5,239.5C 114.179,241.048 113.179,241.715 111.5,241.5C 110.148,238.888 110.148,233.554 111.5,225.5C 110.488,223.437 109.488,221.437 108.5,219.5C 107.89,218.609 107.557,217.609 107.5,216.5C 107.216,214.585 107.549,212.919 108.5,211.5 Z"/></g>
<g><path style="opacity:1" fill="#ce842c" d="M 291.5,186.5 C 292.488,191.64 292.821,196.974 292.5,202.5C 292.028,204.531 291.028,206.198 289.5,207.5C 283.683,212.476 277.683,217.309 271.5,222C 257.956,228.847 243.623,233.514 228.5,236C 216.338,243.511 204.004,250.844 191.5,258C 187.578,259.798 183.578,261.298 179.5,262.5C 179.366,260.708 179.699,259.042 180.5,257.5C 181.552,257.649 182.552,257.483 183.5,257C 195.52,249.635 207.52,242.302 219.5,235C 230.661,231.03 241.994,227.697 253.5,225C 268.078,220.297 279.912,211.797 289,199.5C 291.173,195.49 292.006,191.157 291.5,186.5 Z"/></g>
<g><path style="opacity:1" fill="#9e6026" d="M 289.5,223.5 C 289.5,234.833 289.5,246.167 289.5,257.5C 286.929,261.368 283.263,263.035 278.5,262.5C 278.328,261.508 278.662,260.842 279.5,260.5C 281.199,260.66 282.866,260.494 284.5,260C 285.252,259.329 285.586,258.496 285.5,257.5C 285.833,256.833 286.167,256.167 286.5,255.5C 288.158,245.039 289.158,234.372 289.5,223.5 Z"/></g>
<g><path style="opacity:1" fill="#11142f" d="M 185.5,241.5 C 186.5,241.5 187.5,241.5 188.5,241.5C 188.5,242.833 188.5,244.167 188.5,245.5C 187.167,245.5 185.833,245.5 184.5,245.5C 184.433,244.041 184.766,242.708 185.5,241.5 Z"/></g>
<g><path style="opacity:1" fill="#5a331a" d="M 289.5,218.5 C 289.833,218.5 290.167,218.5 290.5,218.5C 290.829,231.677 290.495,244.677 289.5,257.5C 289.5,246.167 289.5,234.833 289.5,223.5C 289.737,222.209 289.404,221.209 288.5,220.5C 288.833,219.833 289.167,219.167 289.5,218.5 Z"/></g>
<g><path style="opacity:1" fill="#272119" d="M 108.5,219.5 C 109.488,221.437 110.488,223.437 111.5,225.5C 110.148,233.554 110.148,238.888 111.5,241.5C 113.179,241.715 114.179,241.048 114.5,239.5C 115.323,242.977 115.823,246.644 116,250.5C 116.816,251.823 117.983,252.489 119.5,252.5C 119.5,252.833 119.5,253.167 119.5,253.5C 117.856,253.714 116.356,253.38 115,252.5C 114.505,250.527 114.338,248.527 114.5,246.5C 107.365,250.066 103.699,247.733 103.5,239.5C 104.601,240.848 105.601,242.348 106.5,244C 107.449,244.617 108.282,244.451 109,243.5C 108.978,235.513 108.811,227.513 108.5,219.5 Z"/></g>
<g><path style="opacity:1" fill="#7e3b06" d="M 155.5,240.5 C 160.414,241.707 165.414,242.374 170.5,242.5C 168.042,246.785 167.042,251.452 167.5,256.5C 163.869,257.412 160.203,257.579 156.5,257C 155.944,256.617 155.611,256.117 155.5,255.5C 155.5,250.5 155.5,245.5 155.5,240.5 Z"/></g>
<g><path style="opacity:1" fill="#502504" d="M 148.5,236.5 C 151.303,236.961 153.637,238.295 155.5,240.5C 155.5,245.5 155.5,250.5 155.5,255.5C 152.467,255.132 149.8,255.798 147.5,257.5C 147.167,257.5 146.833,257.5 146.5,257.5C 148.98,251.044 148.98,244.71 146.5,238.5C 147.167,237.833 147.833,237.167 148.5,236.5 Z"/></g>
<g><path style="opacity:1" fill="#ce812b" d="M 286.5,255.5 C 286.167,256.167 285.833,256.833 285.5,257.5C 284.175,253.555 283.508,249.222 283.5,244.5C 283.438,238.768 283.938,233.102 285,227.5C 285.414,227.043 285.914,226.709 286.5,226.5C 287.58,236.162 287.58,245.829 286.5,255.5 Z"/></g>
<g><path style="opacity:1" fill="#c9beab" d="M 311.5,253.5 C 311.5,253.167 311.5,252.833 311.5,252.5C 311.5,251.5 311.5,250.5 311.5,249.5C 312.5,249.5 313.5,249.5 314.5,249.5C 314.5,250.833 314.5,252.167 314.5,253.5C 313.5,253.5 312.5,253.5 311.5,253.5 Z"/></g>
<g><path style="opacity:1" fill="#8b4108" d="M 134.5,233.5 C 138.877,235.734 143.543,236.734 148.5,236.5C 147.833,237.167 147.167,237.833 146.5,238.5C 145.167,238.5 143.833,238.5 142.5,238.5C 142.5,244.167 142.5,249.833 142.5,255.5C 143.972,256.957 142.305,256.957 137.5,255.5C 136.5,255.5 135.5,255.5 134.5,255.5C 134.5,254.5 134.5,253.5 134.5,252.5C 134.5,246.167 134.5,239.833 134.5,233.5 Z"/></g>
<g><path style="opacity:1" fill="#e4ab5a" d="M 270.5,230.5 C 271.116,231.202 271.116,232.202 270.5,233.5C 268.938,233.733 267.605,234.4 266.5,235.5C 261.998,237.445 257.332,238.779 252.5,239.5C 252.167,239.5 251.833,239.5 251.5,239.5C 249.57,239.771 248.236,240.771 247.5,242.5C 239.893,245.484 232.227,247.817 224.5,249.5C 223.728,250.694 222.728,251.694 221.5,252.5C 216.715,254.762 211.715,256.428 206.5,257.5C 205.5,257.5 204.5,257.5 203.5,257.5C 201.799,258.211 200.799,259.545 200.5,261.5C 197.281,261.906 194.281,261.906 191.5,261.5C 194.362,259.24 197.362,257.24 200.5,255.5C 205.655,255.035 210.655,253.869 215.5,252C 227.695,245.044 240.695,240.044 254.5,237C 259.817,234.729 265.15,232.563 270.5,230.5 Z"/></g>
<g><path style="opacity:1" fill="#a75307" d="M 247.5,242.5 C 244.855,244.799 243.522,247.799 243.5,251.5C 244.35,258.809 244.684,266.142 244.5,273.5C 244.785,275.288 244.452,276.955 243.5,278.5C 240.573,279.801 237.573,280.801 234.5,281.5C 232.143,281.663 229.81,281.497 227.5,281C 226.663,279.989 226.33,278.822 226.5,277.5C 225.5,277.5 224.5,277.5 223.5,277.5C 223.334,269.826 223.5,262.159 224,254.5C 224.827,253.338 225.66,252.171 226.5,251C 226.164,249.97 225.497,249.47 224.5,249.5C 232.227,247.817 239.893,245.484 247.5,242.5 Z"/></g>
<g><path style="opacity:1" fill="#a0500a" d="M 270.5,233.5 C 270.5,244.5 270.5,255.5 270.5,266.5C 269.811,269.189 268.144,270.856 265.5,271.5C 261.026,273.788 256.36,274.122 251.5,272.5C 250.432,271.566 249.099,271.232 247.5,271.5C 247.334,263.493 247.5,255.493 248,247.5C 249.768,245.088 250.935,242.421 251.5,239.5C 251.833,239.5 252.167,239.5 252.5,239.5C 253.091,240.151 253.757,240.818 254.5,241.5C 253.262,251.324 253.429,261.324 255,271.5C 257.466,272.777 259.966,272.777 262.5,271.5C 263.612,270.735 264.279,269.735 264.5,268.5C 265.117,268.611 265.617,268.944 266,269.5C 266.667,268.167 267.333,266.833 268,265.5C 269.059,255.343 268.559,245.343 266.5,235.5C 267.605,234.4 268.938,233.733 270.5,233.5 Z"/></g>
<g><path style="opacity:1" fill="#302713" d="M 121.5,257.5 C 129.47,258.717 137.47,259.717 145.5,260.5C 143.866,261.161 142.033,261.494 140,261.5C 134.817,260.896 129.651,260.23 124.5,259.5C 121.762,259.149 119.096,258.482 116.5,257.5C 115.571,258.689 115.238,260.022 115.5,261.5C 110.763,260.406 110.43,258.572 114.5,256C 116.851,256.14 119.184,256.64 121.5,257.5 Z"/></g>
<g><path style="opacity:1" fill="#3a240e" d="M 127.5,224.5 C 134.09,227.951 141.09,230.617 148.5,232.5C 157.548,233.589 166.548,234.922 175.5,236.5C 175.166,239.188 175.832,241.521 177.5,243.5C 174.671,243.675 173.004,242.342 172.5,239.5C 171.82,243.155 170.82,246.655 169.5,250C 169.528,251.07 169.861,251.903 170.5,252.5C 170.702,254.95 170.369,257.283 169.5,259.5C 166.236,260.324 162.902,260.658 159.5,260.5C 157.513,259.657 155.346,258.99 153,258.5C 150.846,259.274 148.679,259.941 146.5,260.5C 147.11,259.609 147.443,258.609 147.5,257.5C 149.8,255.798 152.467,255.132 155.5,255.5C 155.611,256.117 155.944,256.617 156.5,257C 160.203,257.579 163.869,257.412 167.5,256.5C 167.042,251.452 168.042,246.785 170.5,242.5C 170.5,241.167 170.5,239.833 170.5,238.5C 159.308,236.951 148.308,234.618 137.5,231.5C 134.539,229.684 131.205,228.35 127.5,227.5C 127.5,226.833 127.167,226.5 126.5,226.5C 126.328,225.508 126.662,224.842 127.5,224.5 Z"/></g>
<g><path style="opacity:1" fill="#cebea4" d="M 92.5,256.5 C 93.5,256.5 94.5,256.5 95.5,256.5C 95.5,257.833 95.5,259.167 95.5,260.5C 94.5,260.5 93.5,260.5 92.5,260.5C 92.5,259.167 92.5,257.833 92.5,256.5 Z"/></g>
<g><path style="opacity:1" fill="#1a1c1a" d="M 127.5,251.5 C 129.95,251.298 132.283,251.631 134.5,252.5C 134.5,253.5 134.5,254.5 134.5,255.5C 135.5,255.5 136.5,255.5 137.5,255.5C 137.611,256.117 137.944,256.617 138.5,257C 141.146,257.497 143.813,257.664 146.5,257.5C 146.833,257.5 147.167,257.5 147.5,257.5C 147.443,258.609 147.11,259.609 146.5,260.5C 146.167,260.5 145.833,260.5 145.5,260.5C 137.47,259.717 129.47,258.717 121.5,257.5C 121.567,256.041 121.234,254.708 120.5,253.5C 123.228,253.829 125.562,253.163 127.5,251.5 Z"/></g>
<g><path style="opacity:1" fill="#cf872c" d="M 264.5,268.5 C 263.292,269.234 261.959,269.567 260.5,269.5C 260.334,261.16 260.5,252.827 261,244.5C 262.011,243.663 263.178,243.33 264.5,243.5C 264.5,251.833 264.5,260.167 264.5,268.5 Z"/></g>
<g><path style="opacity:1" fill="#b45e0d" d="M 221.5,252.5 C 221.5,261.833 221.5,271.167 221.5,280.5C 222.538,291.474 217.871,295.474 207.5,292.5C 207.5,292.167 207.5,291.833 207.5,291.5C 206.417,280.106 206.083,268.773 206.5,257.5C 211.715,256.428 216.715,254.762 221.5,252.5 Z"/></g>
<g><path style="opacity:1" fill="#672c06" d="M 251.5,239.5 C 250.935,242.421 249.768,245.088 248,247.5C 247.5,255.493 247.334,263.493 247.5,271.5C 249.099,271.232 250.432,271.566 251.5,272.5C 249.097,272.448 246.764,272.781 244.5,273.5C 244.684,266.142 244.35,258.809 243.5,251.5C 243.522,247.799 244.855,244.799 247.5,242.5C 248.236,240.771 249.57,239.771 251.5,239.5 Z"/></g>
<g><path style="opacity:1" fill="#692d08" d="M 224.5,249.5 C 225.497,249.47 226.164,249.97 226.5,251C 225.66,252.171 224.827,253.338 224,254.5C 223.5,262.159 223.334,269.826 223.5,277.5C 224.5,277.5 225.5,277.5 226.5,277.5C 226.33,278.822 226.663,279.989 227.5,281C 229.81,281.497 232.143,281.663 234.5,281.5C 231.696,282.638 228.696,282.805 225.5,282C 224.151,281.228 223.318,280.061 223,278.5C 222.722,279.416 222.222,280.082 221.5,280.5C 221.5,271.167 221.5,261.833 221.5,252.5C 222.728,251.694 223.728,250.694 224.5,249.5 Z"/></g>
<g><path style="opacity:1" fill="#f8cf84" d="M 124.5,259.5 C 126.154,262.666 128.821,264.333 132.5,264.5C 133.458,265.962 134.624,267.295 136,268.5C 141.779,267.193 147.612,267.193 153.5,268.5C 152.652,269.991 151.319,270.658 149.5,270.5C 145.993,269.174 142.66,269.34 139.5,271C 140.938,271.219 142.271,271.719 143.5,272.5C 143,272.833 142.5,273.167 142,273.5C 138.559,272.618 135.059,272.284 131.5,272.5C 130.417,272.461 129.417,272.127 128.5,271.5C 127.167,272.5 127.167,273.5 128.5,274.5C 133.26,277.145 138.26,279.312 143.5,281C 151.896,281.232 160.229,281.399 168.5,281.5C 169.893,283.674 169.56,285.507 167.5,287C 162.227,288.288 156.894,289.122 151.5,289.5C 146.463,289.092 141.463,288.426 136.5,287.5C 136.167,287.5 135.833,287.5 135.5,287.5C 133.483,286.471 131.483,285.471 129.5,284.5C 127.045,280.967 125.878,276.967 126,272.5C 121.593,269.596 118.093,265.929 115.5,261.5C 115.238,260.022 115.571,258.689 116.5,257.5C 119.096,258.482 121.762,259.149 124.5,259.5 Z"/></g>
<g><path style="opacity:1" fill="#d28428" d="M 237.5,251.5 C 238.5,251.5 239.5,251.5 240.5,251.5C 240.666,259.84 240.5,268.173 240,276.5C 238.989,277.337 237.822,277.67 236.5,277.5C 236.225,268.779 236.558,260.113 237.5,251.5 Z"/></g>
<g><path style="opacity:1" fill="#1b1c19" d="M 115.5,261.5 C 118.093,265.929 121.593,269.596 126,272.5C 125.878,276.967 127.045,280.967 129.5,284.5C 127.857,284.52 126.524,283.853 125.5,282.5C 124.225,278.922 123.225,275.255 122.5,271.5C 121.032,269.667 119.365,269.334 117.5,270.5C 118.325,271.386 119.325,271.719 120.5,271.5C 120.292,276.627 120.958,281.627 122.5,286.5C 121.311,287.429 119.978,287.762 118.5,287.5C 118.431,282.055 117.764,276.722 116.5,271.5C 115.5,271.5 114.5,271.5 113.5,271.5C 113.828,276.875 113.495,282.208 112.5,287.5C 111.833,286.833 111.167,286.167 110.5,285.5C 109.748,289.192 108.914,292.858 108,296.5C 107.502,293.518 107.335,290.518 107.5,287.5C 106.5,287.5 105.5,287.5 104.5,287.5C 104.369,286.624 104.702,285.957 105.5,285.5C 113.419,283.287 113.253,281.287 105,279.5C 103.864,276.904 103.031,274.237 102.5,271.5C 104.175,273.193 105.508,275.193 106.5,277.5C 107.466,275.604 107.799,273.604 107.5,271.5C 108.5,271.5 109.5,271.5 110.5,271.5C 110.672,280.81 111.172,280.81 112,271.5C 112.645,270.354 113.478,269.354 114.5,268.5C 113.675,267.614 112.675,267.281 111.5,267.5C 111.5,266.5 111.5,265.5 111.5,264.5C 112.833,264.5 114.167,264.5 115.5,264.5C 115.5,263.5 115.5,262.5 115.5,261.5 Z"/></g>
<g><path style="opacity:1" fill="#fdcf79" d="M 132.5,264.5 C 139.725,265.968 147.059,266.968 154.5,267.5C 156.928,270.55 159.928,272.883 163.5,274.5C 152.86,277.502 142.193,276.835 131.5,272.5C 135.059,272.284 138.559,272.618 142,273.5C 142.5,273.167 143,272.833 143.5,272.5C 142.271,271.719 140.938,271.219 139.5,271C 142.66,269.34 145.993,269.174 149.5,270.5C 151.319,270.658 152.652,269.991 153.5,268.5C 147.612,267.193 141.779,267.193 136,268.5C 134.624,267.295 133.458,265.962 132.5,264.5 Z"/></g>
<g><path style="opacity:1" fill="#b35e0d" d="M 191.5,261.5 C 194.281,261.906 197.281,261.906 200.5,261.5C 200.068,262.71 199.401,263.71 198.5,264.5C 197.937,273.442 196.937,282.442 195.5,291.5C 195.5,292.167 195.167,292.5 194.5,292.5C 191.552,292.777 188.719,292.444 186,291.5C 185.168,282.482 185.335,273.482 186.5,264.5C 187.94,263.048 189.606,262.048 191.5,261.5 Z"/></g>
<g><path style="opacity:1" fill="#d1832c" d="M 191.5,267.5 C 192.5,267.5 193.5,267.5 194.5,267.5C 194.666,274.508 194.5,281.508 194,288.5C 192.644,289.38 191.144,289.714 189.5,289.5C 188.924,281.889 189.59,274.556 191.5,267.5 Z"/></g>
<g><path style="opacity:1" fill="#a04b0a" d="M 203.5,257.5 C 204.5,257.5 205.5,257.5 206.5,257.5C 206.083,268.773 206.417,280.106 207.5,291.5C 205.606,290.952 203.94,289.952 202.5,288.5C 200.998,278.049 201.332,267.716 203.5,257.5 Z"/></g>
<g><path style="opacity:1" fill="#573114" d="M 265.5,271.5 C 265.586,272.496 265.252,273.329 264.5,274C 260.5,274.667 256.5,274.667 252.5,274C 251.944,273.617 251.611,273.117 251.5,272.5C 256.36,274.122 261.026,273.788 265.5,271.5 Z"/></g>
<g><path style="opacity:1" fill="#632504" d="M 203.5,257.5 C 201.332,267.716 200.998,278.049 202.5,288.5C 203.94,289.952 205.606,290.952 207.5,291.5C 207.5,291.833 207.5,292.167 207.5,292.5C 204.972,291.977 202.639,290.977 200.5,289.5C 199.416,289.685 198.416,290.018 197.5,290.5C 198.442,281.887 198.775,273.221 198.5,264.5C 199.401,263.71 200.068,262.71 200.5,261.5C 200.799,259.545 201.799,258.211 203.5,257.5 Z"/></g>
<g><path style="opacity:1" fill="#e9c88a" d="M 301.5,266.5 C 302.321,271.661 305.321,274.994 310.5,276.5C 305.321,277.846 302.487,281.179 302,286.5C 300.619,284.365 299.619,282.032 299,279.5C 296.657,278.873 294.49,277.873 292.5,276.5C 294.632,275.402 296.798,274.402 299,273.5C 299.744,271.1 300.577,268.767 301.5,266.5 Z"/></g>
<g><path style="opacity:1" fill="#e3a23e" d="M 180.5,257.5 C 179.699,259.042 179.366,260.708 179.5,262.5C 179.5,272.167 179.5,281.833 179.5,291.5C 178.167,291.5 176.833,291.5 175.5,291.5C 175.5,290.5 175.5,289.5 175.5,288.5C 169.436,288.51 163.436,289.177 157.5,290.5C 155.304,290.495 153.304,290.162 151.5,289.5C 156.894,289.122 162.227,288.288 167.5,287C 169.56,285.507 169.893,283.674 168.5,281.5C 160.229,281.399 151.896,281.232 143.5,281C 138.26,279.312 133.26,277.145 128.5,274.5C 127.167,273.5 127.167,272.5 128.5,271.5C 129.417,272.127 130.417,272.461 131.5,272.5C 142.193,276.835 152.86,277.502 163.5,274.5C 159.928,272.883 156.928,270.55 154.5,267.5C 147.059,266.968 139.725,265.968 132.5,264.5C 128.821,264.333 126.154,262.666 124.5,259.5C 129.651,260.23 134.817,260.896 140,261.5C 142.033,261.494 143.866,261.161 145.5,260.5C 145.833,260.5 146.167,260.5 146.5,260.5C 148.679,259.941 150.846,259.274 153,258.5C 155.346,258.99 157.513,259.657 159.5,260.5C 162.902,260.658 166.236,260.324 169.5,259.5C 171.344,257.721 172.01,255.388 171.5,252.5C 172.552,252.351 173.552,252.517 174.5,253C 175.985,255.237 177.985,256.737 180.5,257.5 Z"/></g>
<g><path style="opacity:1" fill="#e9a134" d="M 159.5,260.5 C 160.777,261.898 162.443,262.564 164.5,262.5C 167.952,261.905 171.286,260.905 174.5,259.5C 175.795,260.098 177.128,260.598 178.5,261C 177.824,269.514 177.157,278.347 176.5,287.5C 175.5,287.5 174.5,287.5 173.5,287.5C 173.694,284.67 174.361,282.004 175.5,279.5C 171.846,279.058 168.179,278.724 164.5,278.5C 164.5,276.833 164.5,275.167 164.5,273.5C 166.262,273.643 167.929,273.309 169.5,272.5C 171.001,273.752 172.668,274.752 174.5,275.5C 175.452,273.955 175.785,272.288 175.5,270.5C 171.858,269.92 168.191,269.42 164.5,269C 163.027,268.29 162.36,267.124 162.5,265.5C 160.202,264.69 157.868,263.856 155.5,263C 156.308,261.294 157.641,260.461 159.5,260.5 Z"/></g>
<g><path style="opacity:1" fill="#84400e" d="M 198.5,264.5 C 198.775,273.221 198.442,281.887 197.5,290.5C 197.158,291.338 196.492,291.672 195.5,291.5C 196.937,282.442 197.937,273.442 198.5,264.5 Z"/></g>
<g><path style="opacity:1" fill="#eeca89" d="M 102.5,271.5 C 103.031,274.237 103.864,276.904 105,279.5C 113.253,281.287 113.419,283.287 105.5,285.5C 104.702,285.957 104.369,286.624 104.5,287.5C 103.801,289.556 102.801,291.556 101.5,293.5C 100.308,291.258 99.3076,288.925 98.5,286.5C 96.0977,285.425 93.7644,284.258 91.5,283C 93.8333,281.5 96.1667,280 98.5,278.5C 99.1118,275.567 100.445,273.234 102.5,271.5 Z"/></g>
<g><path style="opacity:1" fill="#d0852d" d="M 214.5,259.5 C 215.5,259.5 216.5,259.5 217.5,259.5C 217.5,269.5 217.5,279.5 217.5,289.5C 215.833,289.5 214.167,289.5 212.5,289.5C 212.334,280.494 212.5,271.494 213,262.5C 213.513,261.473 214.013,260.473 214.5,259.5 Z"/></g>
<g><path style="opacity:1" fill="#c39450" d="M 136.5,287.5 C 141.463,288.426 146.463,289.092 151.5,289.5C 153.304,290.162 155.304,290.495 157.5,290.5C 163.436,289.177 169.436,288.51 175.5,288.5C 175.5,289.5 175.5,290.5 175.5,291.5C 176.833,291.5 178.167,291.5 179.5,291.5C 179.5,292.833 179.5,294.167 179.5,295.5C 178.041,295.567 176.708,295.234 175.5,294.5C 175.5,294.167 175.5,293.833 175.5,293.5C 175.063,290.951 173.563,289.618 171,289.5C 159.155,292.582 147.655,291.915 136.5,287.5 Z"/></g>
<g><path style="opacity:1" fill="#d8ceb1" d="M 276.5,290.5 C 277.5,290.5 278.5,290.5 279.5,290.5C 279.5,291.5 279.5,292.5 279.5,293.5C 278.5,293.5 277.5,293.5 276.5,293.5C 276.5,292.5 276.5,291.5 276.5,290.5 Z"/></g>
<g><path style="opacity:1" fill="#f6ce85" d="M 252.5,279.5 C 254.265,278.539 256.265,278.205 258.5,278.5C 259.584,284.07 257.917,288.57 253.5,292C 247.765,294.601 241.765,296.267 235.5,297C 230.882,299.95 226.548,303.284 222.5,307C 212.649,309.753 202.649,310.253 192.5,308.5C 187.576,308.354 182.909,309.021 178.5,310.5C 173.156,310.666 167.823,310.499 162.5,310C 158.107,308.477 154.44,305.977 151.5,302.5C 151.5,302.167 151.5,301.833 151.5,301.5C 151.821,299.952 152.821,299.285 154.5,299.5C 155.391,300.11 156.391,300.443 157.5,300.5C 158.453,302.61 160.119,303.777 162.5,304C 173.023,306.056 183.356,305.556 193.5,302.5C 200.154,303.307 206.82,303.474 213.5,303C 216.667,300.887 220,299.053 223.5,297.5C 224.641,295.192 226.308,293.359 228.5,292C 236.582,289.815 244.582,287.648 252.5,285.5C 252.5,284.167 252.5,282.833 252.5,281.5C 254.109,281.906 255.443,281.906 256.5,281.5C 255.68,279.889 254.346,279.222 252.5,279.5 Z"/></g>
<g><path style="opacity:1" fill="#241d16" d="M 270.5,266.5 C 270.833,266.5 271.167,266.5 271.5,266.5C 270.804,269.88 269.137,272.713 266.5,275C 262.049,275.13 257.716,275.796 253.5,277C 255.5,277.333 257.5,277.667 259.5,278C 260.574,278.739 261.241,279.739 261.5,281C 260.796,284.128 260.296,287.294 260,290.5C 259,292.167 257.667,293.5 256,294.5C 254.807,292.557 253.307,292.724 251.5,295C 252.793,295.49 254.127,295.657 255.5,295.5C 255.5,296.5 255.5,297.5 255.5,298.5C 247.263,295.707 239.263,296.541 231.5,301C 229.919,302.828 228.585,304.828 227.5,307C 224.58,308.234 221.58,309.234 218.5,310C 205.152,309.72 191.819,309.887 178.5,310.5C 182.909,309.021 187.576,308.354 192.5,308.5C 202.649,310.253 212.649,309.753 222.5,307C 226.548,303.284 230.882,299.95 235.5,297C 241.765,296.267 247.765,294.601 253.5,292C 257.917,288.57 259.584,284.07 258.5,278.5C 256.265,278.205 254.265,278.539 252.5,279.5C 246.439,281.358 240.439,283.524 234.5,286C 229.574,289.959 224.241,293.125 218.5,295.5C 210.307,295.384 202.307,294.717 194.5,293.5C 194.5,293.167 194.5,292.833 194.5,292.5C 195.167,292.5 195.5,292.167 195.5,291.5C 196.492,291.672 197.158,291.338 197.5,290.5C 198.416,290.018 199.416,289.685 200.5,289.5C 202.639,290.977 204.972,291.977 207.5,292.5C 217.871,295.474 222.538,291.474 221.5,280.5C 222.222,280.082 222.722,279.416 223,278.5C 223.318,280.061 224.151,281.228 225.5,282C 228.696,282.805 231.696,282.638 234.5,281.5C 237.573,280.801 240.573,279.801 243.5,278.5C 244.452,276.955 244.785,275.288 244.5,273.5C 246.764,272.781 249.097,272.448 251.5,272.5C 251.611,273.117 251.944,273.617 252.5,274C 256.5,274.667 260.5,274.667 264.5,274C 265.252,273.329 265.586,272.496 265.5,271.5C 268.144,270.856 269.811,269.189 270.5,266.5 Z"/></g>
<g><path style="opacity:1" fill="#241c13" d="M 135.5,287.5 C 135.833,287.5 136.167,287.5 136.5,287.5C 147.655,291.915 159.155,292.582 171,289.5C 173.563,289.618 175.063,290.951 175.5,293.5C 167.17,292.857 158.836,292.69 150.5,293C 150.167,293.333 149.833,293.667 149.5,294C 152.515,295.909 155.515,295.742 158.5,293.5C 159.386,294.325 159.719,295.325 159.5,296.5C 157.219,296.077 155.552,296.744 154.5,298.5C 152.243,298.038 150.243,297.038 148.5,295.5C 148.167,295.833 147.833,296.167 147.5,296.5C 148.612,298.419 149.946,300.086 151.5,301.5C 151.5,301.833 151.5,302.167 151.5,302.5C 149.83,302.249 148.33,301.582 147,300.5C 146.231,297.901 146.398,295.401 147.5,293C 144.289,291.847 140.956,291.18 137.5,291C 136.177,290.184 135.511,289.017 135.5,287.5 Z"/></g>
<g><path style="opacity:1" fill="#2b1e0d" d="M 194.5,293.5 C 202.307,294.717 210.307,295.384 218.5,295.5C 212.664,296.602 206.664,296.602 200.5,295.5C 193.539,296.78 186.539,297.78 179.5,298.5C 178.167,297.167 176.833,295.833 175.5,294.5C 176.708,295.234 178.041,295.567 179.5,295.5C 184.609,295.57 189.609,294.903 194.5,293.5 Z"/></g>
<g><path style="opacity:1" fill="#191c1e" d="M 175.5,293.5 C 175.5,293.833 175.5,294.167 175.5,294.5C 176.833,295.833 178.167,297.167 179.5,298.5C 175.917,299.007 172.583,300.007 169.5,301.5C 165.434,301.693 161.434,301.36 157.5,300.5C 156.391,300.443 155.391,300.11 154.5,299.5C 154.5,299.167 154.5,298.833 154.5,298.5C 155.552,296.744 157.219,296.077 159.5,296.5C 159.719,295.325 159.386,294.325 158.5,293.5C 155.515,295.742 152.515,295.909 149.5,294C 149.833,293.667 150.167,293.333 150.5,293C 158.836,292.69 167.17,292.857 175.5,293.5 Z"/></g>
<g><path style="opacity:1" fill="#cbb78e" d="M 154.5,298.5 C 154.5,298.833 154.5,299.167 154.5,299.5C 152.821,299.285 151.821,299.952 151.5,301.5C 149.946,300.086 148.612,298.419 147.5,296.5C 147.833,296.167 148.167,295.833 148.5,295.5C 150.243,297.038 152.243,298.038 154.5,298.5 Z"/></g>
<g><path style="opacity:1" fill="#dea14a" d="M 252.5,279.5 C 254.346,279.222 255.68,279.889 256.5,281.5C 255.443,281.906 254.109,281.906 252.5,281.5C 252.5,282.833 252.5,284.167 252.5,285.5C 244.582,287.648 236.582,289.815 228.5,292C 226.308,293.359 224.641,295.192 223.5,297.5C 220,299.053 216.667,300.887 213.5,303C 206.82,303.474 200.154,303.307 193.5,302.5C 195.958,300.287 198.958,299.121 202.5,299C 202.833,298.667 203.167,298.333 203.5,298C 202.333,297.833 201.167,297.667 200,297.5C 189.787,298.701 179.62,300.034 169.5,301.5C 172.583,300.007 175.917,299.007 179.5,298.5C 186.539,297.78 193.539,296.78 200.5,295.5C 206.664,296.602 212.664,296.602 218.5,295.5C 224.241,293.125 229.574,289.959 234.5,286C 240.439,283.524 246.439,281.358 252.5,279.5 Z"/></g>
<g><path style="opacity:1" fill="#e7a740" d="M 193.5,302.5 C 183.356,305.556 173.023,306.056 162.5,304C 160.119,303.777 158.453,302.61 157.5,300.5C 161.434,301.36 165.434,301.693 169.5,301.5C 179.62,300.034 189.787,298.701 200,297.5C 201.167,297.667 202.333,297.833 203.5,298C 203.167,298.333 202.833,298.667 202.5,299C 198.958,299.121 195.958,300.287 193.5,302.5 Z"/></g>
</svg>
