<svg fill="none" viewBox="0 0 348 105" width="120" xmlns="http://www.w3.org/2000/svg"><g fill="#111"><path d="m114.679 81.1919h7.245v-27.1926l11.159 27.1926h5.843l11.101-27.1926v27.1926h7.245v-41.0233h-8.881l-12.386 30.2986-12.386-30.2986h-8.94z"/><path d="m177.094 81.6607c8.939 0 15.366-6.4465 15.366-15.2372s-6.427-15.2372-15.366-15.2372c-8.997 0-15.424 6.4465-15.424 15.2372s6.427 15.2372 15.424 15.2372zm0-6.2121c-4.908 0-8.179-3.6921-8.179-9.0251s3.271-9.0251 8.179-9.0251c4.85 0 8.121 3.6921 8.121 9.0251s-3.271 9.0251-8.121 9.0251z"/><path d="m209.988 81.6607c8.939 0 15.366-6.4465 15.366-15.2372s-6.427-15.2372-15.366-15.2372c-8.997 0-15.424 6.4465-15.424 15.2372s6.427 15.2372 15.424 15.2372zm0-6.2121c-4.908 0-8.179-3.6921-8.179-9.0251s3.271-9.0251 8.179-9.0251c4.85 0 8.121 3.6921 8.121 9.0251s-3.271 9.0251-8.121 9.0251z"/><path d="m229.035 81.1919h7.187v-16.1163c0-4.3367 2.804-7.5014 6.835-7.5014 3.681 0 6.135 2.813 6.135 6.8568v16.7609h7.186v-18.2847c0-6.9153-4.323-11.7209-10.984-11.7209-4.206 0-7.536 1.8167-9.172 5.04v-4.5712h-7.187z"/><path d="m262.345 81.1919h7.771v-15.5888h8.647c8.53 0 13.613-5.2745 13.613-12.7173 0-7.4427-5.083-12.7172-13.613-12.7172h-16.418zm7.771-22.094v-12.4242h8.296c4.557 0 6.427 2.9303 6.427 6.2121 0 3.2819-1.87 6.2121-6.427 6.2121z"/><path d="m306.173 51.1863c-7.654 0-12.62 4.5712-12.971 10.4316h6.427c.117-2.6372 2.396-5.04 6.193-5.04 3.798 0 6.018 2.0512 6.018 4.9228 0 1.1721-.701 1.9926-2.162 1.9926h-5.433c-6.602 0-11.043 3.5749-11.043 9.3181 0 5.0986 3.973 8.8493 9.816 8.8493 4.207 0 7.595-1.9339 8.822-4.8642v4.3954h7.07v-18.9879c0-6.681-5.259-11.0177-12.737-11.0177zm-1.461 25.1414c-2.687 0-4.557-1.5237-4.557-3.8093 0-2.5786 2.045-4.2781 5.083-4.2781h6.602v.4688c0 4.454-2.629 7.6186-7.128 7.6186z"/><path d="m348 51.6551h-7.362l-6.777 20.2773-6.836-20.2773h-7.303l10.75 29.5368-4.148 11.9553h6.836l4.557-13.3618z"/></g><g fill="#7d01ff"><path d="m85.2037 62.2674c0 23.6006-19.0735 42.7326-42.6018 42.7326-23.5284 0-42.6019-19.132-42.6019-42.7326 0-23.6005 19.0735-42.7325 42.6019-42.7325 23.5283 0 42.6018 19.132 42.6018 42.7325z"/><path d="m110.765 15.2616c0 8.4288-6.812 15.2617-15.2151 15.2617-8.403 0-15.215-6.8329-15.215-15.2617 0-8.42874 6.812-15.2616 15.215-15.2616 8.4031 0 15.2151 6.83286 15.2151 15.2616z"/></g></svg>