<svg fill="none" viewBox="0 0 101 27" xmlns="http://www.w3.org/2000/svg"><path clip-rule="evenodd" d="m13 .799988v25.396612c-6.6069 0-12.200012-5.8118-12.200012-12.6966 0-6.88456 5.593112-12.700012 12.200012-12.700012z" fill="#5f70db" fill-rule="evenodd"/><g fill="#000"><path d="m58.7354 14.7974-2.7795-7.32641h-4.9928l5.3788 12.34171-2.239 5.9873h4.4008l7.2064-18.32901h-4.4009z"/><path d="m100.614 11.541c-.309-3.28237-2.6252-4.43774-5.9453-4.43774-3.114 0-5.7647 1.47065-5.7647 4.51664 0 2.8622 1.5185 3.939 5.1214 4.4117 1.853.2625 2.4966.5775 2.4966 1.2342 0 .6827-.5148 1.129-1.6473 1.129-1.3124 0-1.7501-.5515-1.9044-1.5492h-4.2466c.1029 3.0459 2.3422 4.674 6.1767 4.674 3.7318 0 6.0996-1.4704 6.0996-4.7265 0-2.941-1.8016-3.939-5.5333-4.4117-1.647-.2101-2.2647-.4726-2.2647-1.129 0-.6303.5145-1.0768 1.5185-1.0768 1.055 0 1.5441.4465 1.7241 1.3654z"/><path d="m87.3604 21.2046v-13.73361h-4.6068v13.73361z"/><path d="m87.5921 3.74202c0-1.39156-1.1065-2.44203-2.5478-2.44203-1.4414 0-2.5221 1.05047-2.5221 2.44203 0 1.39184 1.0807 2.41595 2.5221 2.41595 1.4413 0 2.5478-1.02411 2.5478-2.41595z"/><g clip-rule="evenodd" fill-rule="evenodd"><path d="m30.8017 7.10326c3.14 0 5.6878 2.41594 5.6878 7.11624v.2101c0 4.7267-2.5478 7.09-5.7136 7.09-2.033 0-3.5-.9714-4.1691-2.3369v6.6173h-4.6068v-18.32901h4.6068v2.04821c.772-1.31302 2.1619-2.41594 4.1949-2.41594zm-4.3237 7.09024c0-2.3111 1.0039-3.5453 2.6766-3.5453 1.6213 0 2.651 1.1557 2.651 3.5713v.2101c0 2.2583-.9265 3.4925-2.651 3.4925-1.6727 0-2.6766-1.1817-2.6766-3.5188z"/><path d="m44.5427 7.10326c3.706 0 6.0736 1.54948 6.0736 5.19934v8.902h-4.478v-1.602c-.6434.998-1.8273 1.917-3.9891 1.917-2.4193 0-4.5554-1.2079-4.5554-4.1226 0-3.2299 2.6767-4.4905 7.1546-4.4905h1.2868v-.315c0-1.313-.3088-2.1795-1.7756-2.1795-1.2611 0-1.7244.7616-1.8273 1.6281h-4.324c.206-3.30882 2.7538-4.93684 6.4344-4.93684zm.2829 8.45564h1.2096v.8401c0 1.1818-.9779 1.9433-2.2904 1.9433-1.0811 0-1.5956-.499-1.5956-1.2866 0-1.1293.8234-1.4968 2.6764-1.4968z"/><path d="m71.4891 1.43126v8.08794c.7719-1.31302 2.1618-2.41594 4.1951-2.41594 3.1398 0 5.6876 2.41594 5.6876 7.11624v.2101c0 4.7267-2.5478 7.09-5.7133 7.09-2.0076 0-3.5003-.9714-4.1694-2.4421v2.1271h-4.6069v-19.77334zm-.1286 12.76224c0-2.3111 1.0036-3.5453 2.6764-3.5453 1.6216 0 2.6509 1.1557 2.6509 3.5713v.2101c0 2.2583-.9265 3.4925-2.6509 3.4925-1.6728 0-2.6764-1.1817-2.6764-3.5188z"/></g></g></svg>